<svg width="17" height="14" viewBox="0 0 17 14" fill="none" xmlns="http://www.w3.org/2000/svg">
<path d="M15.104 0.954993C15.2063 0.850542 15.3285 0.767564 15.4634 0.710917C15.5982 0.654269 15.743 0.625092 15.8892 0.625092C16.0355 0.625092 16.1803 0.654269 16.3151 0.710917C16.4499 0.767564 16.5721 0.850542 16.6745 0.954993C17.1035 1.38849 17.1095 2.08899 16.6895 2.52999L7.81997 13.015C7.71927 13.1256 7.59707 13.2144 7.46084 13.2762C7.32461 13.3379 7.17722 13.3712 7.02768 13.374C6.87814 13.3768 6.72961 13.3491 6.59116 13.2925C6.45271 13.2359 6.32725 13.1517 6.22247 13.045L0.82547 7.57599C0.617326 7.36372 0.500732 7.07829 0.500732 6.78099C0.500732 6.4837 0.617326 6.19826 0.82547 5.98599C0.927839 5.88154 1.05002 5.79856 1.18485 5.74192C1.31969 5.68527 1.46447 5.65609 1.61072 5.65609C1.75697 5.65609 1.90175 5.68527 2.03659 5.74192C2.17142 5.79856 2.2936 5.88154 2.39597 5.98599L6.97397 10.6255L15.074 0.987993C15.0833 0.9764 15.0933 0.96538 15.104 0.954993Z" fill="black"/>
</svg>
