<svg width="24" height="16" viewBox="0 0 24 16" fill="none" xmlns="http://www.w3.org/2000/svg">
<path d="M19.11 9.48C20.64 9.48 21.88 8.24 21.88 6.71C21.88 5.18 20.64 3.94 19.11 3.94C17.58 3.94 16.34 5.18 16.34 6.71C16.34 8.24 17.58 9.48 19.11 9.48ZM19.11 5.43C19.81 5.43 20.38 6 20.38 6.7C20.38 7.4 19.81 7.97 19.11 7.97C18.41 7.97 17.84 7.4 17.84 6.7C17.84 6 18.41 5.43 19.11 5.43ZM11.75 7.73C13.88 7.73 15.61 6 15.61 3.87C15.61 1.74 13.88 0 11.75 0C9.62 0 7.88 1.73 7.88 3.86C7.88 5.99 9.62 7.73 11.75 7.73ZM11.75 1.5C13.05 1.5 14.11 2.56 14.11 3.86C14.11 5.16 13.05 6.22 11.75 6.22C10.45 6.22 9.38 5.17 9.38 3.86C9.38 2.55 10.45 1.5 11.75 1.5ZM4.39 9.48C5.92 9.48 7.16 8.24 7.16 6.71C7.16 5.18 5.92 3.93 4.39 3.93C2.86 3.93 1.62 5.18 1.62 6.7C1.62 8.22 2.86 9.48 4.39 9.48ZM4.39 5.43C5.09 5.43 5.66 6 5.66 6.7C5.66 7.4 5.09 7.98 4.39 7.98C3.69 7.98 3.12 7.41 3.12 6.7C3.12 5.99 3.69 5.43 4.39 5.43ZM23.5 13.65V14.75C23.5 15.16 23.16 15.5 22.75 15.5C22.34 15.5 22 15.16 22 14.75V13.65C22 12.69 21.21 11.9 20.25 11.9H19.45C19.04 11.9 18.7 11.56 18.7 11.15C18.7 10.74 19.04 10.4 19.45 10.4H20.25C22.04 10.4 23.5 11.86 23.5 13.65ZM4.8 11.15C4.8 11.56 4.46 11.9 4.05 11.9H3.25C2.29 11.9 1.5 12.69 1.5 13.65V14.75C1.5 15.16 1.16 15.5 0.75 15.5C0.34 15.5 0 15.16 0 14.75V13.65C0 11.86 1.46 10.4 3.25 10.4H4.05C4.46 10.4 4.8 10.74 4.8 11.15ZM17.84 13.15V14.75C17.84 15.16 17.5 15.5 17.09 15.5C16.68 15.5 16.34 15.16 16.34 14.75V13.15C16.34 11.63 15.11 10.4 13.59 10.4H9.91C8.39 10.4 7.16 11.63 7.16 13.15V14.75C7.16 15.16 6.82 15.5 6.41 15.5C6 15.5 5.66 15.16 5.66 14.75V13.15C5.66 10.81 7.57 8.9 9.91 8.9H13.59C15.93 8.9 17.84 10.8 17.84 13.15Z" fill="black"/>
</svg>
