<svg width="16" height="16" viewBox="0 0 16 16" fill="none" xmlns="http://www.w3.org/2000/svg">
<path d="M9.75916 8.10499L15.623 2.22572C16.1257 1.72178 16.1257 0.88189 15.623 0.377953C15.1204 -0.125984 14.2827 -0.125984 13.7801 0.377953L8.08377 6.25722L2.2199 0.377953C1.71728 -0.125984 0.879581 -0.125984 0.376963 0.377953C-0.125654 0.88189 -0.125654 1.72178 0.376963 2.22572L6.24084 8.10499L0.376963 13.8163C-0.125654 14.3202 -0.125654 15.1601 0.376963 15.664C0.544503 15.832 0.879581 16 1.21466 16C1.54974 16 1.88482 15.832 2.05236 15.664L7.91623 9.78478L13.7801 15.664C13.9476 15.832 14.2827 16 14.6178 16C14.9529 16 15.288 15.832 15.4555 15.664C15.9581 15.1601 15.9581 14.3202 15.4555 13.8163L9.75916 8.10499Z" fill="black"/>
</svg>
