<svg width="20" height="20" viewBox="0 0 20 20" fill="none" xmlns="http://www.w3.org/2000/svg">
<path d="M14.82 19.05C14.57 19.05 14.31 19.03 14.05 18.98C11.15 18.43 8.19997 16.77 5.73997 14.31C3.27997 11.85 1.61997 8.89 1.06997 6C0.81997 4.69 1.21997 3.37 2.12997 2.46L2.77997 1.8C3.84997 0.729998 5.59997 0.729998 6.66997 1.8L7.83997 2.97C8.73997 3.87 8.69997 5.31 7.75997 6.24L6.93997 7.06C7.49997 8.34 8.34997 9.58 9.40997 10.64C10.47 11.7 11.71 12.56 12.99 13.12L13.89 12.21C14.74 11.36 16.22 11.36 17.07 12.21L18.24 13.38C19.31 14.45 19.31 16.2 18.24 17.27L17.59 17.92C16.86 18.65 15.86 19.05 14.82 19.05ZM4.72997 2.5C4.39997 2.5 4.07997 2.63 3.84997 2.87L3.18997 3.52C2.62997 4.08 2.38997 4.9 2.54997 5.72C3.03997 8.33 4.54997 11 6.79997 13.25C9.04997 15.5 11.73 17.01 14.33 17.5C15.15 17.66 15.97 17.41 16.53 16.86L17.18 16.21C17.67 15.72 17.67 14.93 17.18 14.44L16.01 13.27C15.72 12.98 15.24 12.98 14.95 13.27L14.05 14.17C13.62 14.61 12.95 14.74 12.39 14.49C10.94 13.85 9.53997 12.88 8.34997 11.69C7.15997 10.51 6.19997 9.12 5.55997 7.66C5.30997 7.11 5.43997 6.44 5.87997 6L6.69997 5.18C7.05997 4.82 7.08997 4.34 6.77997 4.03L5.60997 2.86C5.36997 2.63 5.05997 2.5 4.72997 2.5Z" fill="black"/>
</svg>
