<svg width="12" height="12" viewBox="0 0 12 12" fill="none" xmlns="http://www.w3.org/2000/svg">
<path fill-rule="evenodd" clip-rule="evenodd" d="M6.80508 5.1312H10.4267C10.5643 5.1312 10.7451 5.14734 10.8983 5.22397C10.9778 5.2637 11.0554 5.32245 11.1127 5.40836C11.1708 5.49551 11.2 5.59875 11.2 5.71336C11.2 6.15832 10.8389 6.42292 10.4904 6.42292H6.86878V10.4267C6.86878 10.6261 6.80819 10.809 6.67485 10.9424C6.54151 11.0757 6.35856 11.1363 6.15922 11.1363C5.71427 11.1363 5.44967 10.7752 5.44967 10.4267V6.48661H1.50954C1.06459 6.48661 0.799988 6.12555 0.799988 5.77706C0.799988 5.59742 0.868591 5.43079 1.0008 5.3106C1.13187 5.19145 1.31037 5.1312 1.50954 5.1312H5.38597V1.50954C5.38597 1.06459 5.74703 0.799988 6.09553 0.799988C6.44403 0.799988 6.80508 1.06459 6.80508 1.50954V5.1312ZM10.4267 5.3312C10.6815 5.3312 11 5.39489 11 5.71336C11 6.03184 10.7452 6.22292 10.4904 6.22292H6.66878V10.4267C6.66878 10.7452 6.47769 10.9363 6.15922 10.9363C5.84075 10.9363 5.64967 10.6815 5.64967 10.4267V6.28661H1.50954C1.19107 6.28661 0.999988 6.03183 0.999988 5.77706C0.999988 5.52228 1.19107 5.3312 1.50954 5.3312H5.58597V1.50954C5.58597 1.19107 5.84075 0.999988 6.09553 0.999988C6.35031 0.999988 6.60508 1.19107 6.60508 1.50954V5.3312H10.4267Z" fill="black"/>
</svg>
