<svg width="18" height="18" viewBox="0 0 18 18" fill="none" xmlns="http://www.w3.org/2000/svg">
<path fill-rule="evenodd" clip-rule="evenodd" d="M13.0267 14.0874C11.6765 15.2014 9.94573 15.8705 8.05865 15.8705C3.74423 15.8705 0.246704 12.3729 0.246704 8.05852C0.246704 3.74411 3.74423 0.246582 8.05865 0.246582C12.3731 0.246582 15.8706 3.74411 15.8706 8.05852C15.8706 9.94568 15.2014 11.6766 14.0874 13.0268L17.5337 16.4731C17.8266 16.766 17.8266 17.2408 17.5337 17.5337C17.2408 17.8266 16.7659 17.8266 16.473 17.5337L13.0267 14.0874ZM1.7467 8.05852C1.7467 4.57253 4.57266 1.74658 8.05865 1.74658C11.5446 1.74658 14.3706 4.57253 14.3706 8.05852C14.3706 9.79172 13.672 11.3617 12.5411 12.5024C12.5344 12.5086 12.5279 12.515 12.5214 12.5214C12.5149 12.5279 12.5086 12.5345 12.5024 12.5411C11.3617 13.672 9.79177 14.3705 8.05865 14.3705C4.57266 14.3705 1.7467 11.5445 1.7467 8.05852Z" fill="black"/>
</svg>
