<svg width="22" height="19" viewBox="0 0 22 19" fill="none" xmlns="http://www.w3.org/2000/svg">
<path fill-rule="evenodd" clip-rule="evenodd" d="M8 1.75C6.20507 1.75 4.75 3.20507 4.75 5C4.75 6.79493 6.20507 8.25 8 8.25C9.79493 8.25 11.25 6.79493 11.25 5C11.25 3.20507 9.79493 1.75 8 1.75ZM3.25 5C3.25 2.37665 5.37665 0.25 8 0.25C10.6234 0.25 12.75 2.37665 12.75 5C12.75 7.62335 10.6234 9.75 8 9.75C5.37665 9.75 3.25 7.62335 3.25 5ZM13.25 1C13.25 0.585786 13.5858 0.25 14 0.25C16.6234 0.25 18.75 2.37665 18.75 5C18.75 7.62335 16.6234 9.75 14 9.75C13.5858 9.75 13.25 9.41421 13.25 9C13.25 8.58579 13.5858 8.25 14 8.25C15.7949 8.25 17.25 6.79493 17.25 5C17.25 3.20507 15.7949 1.75 14 1.75C13.5858 1.75 13.25 1.41421 13.25 1ZM0.25 17C0.25 14.3766 2.37665 12.25 5 12.25H11C13.6234 12.25 15.75 14.3766 15.75 17V18C15.75 18.4142 15.4142 18.75 15 18.75C14.5858 18.75 14.25 18.4142 14.25 18V17C14.25 15.2051 12.7949 13.75 11 13.75H5C3.20507 13.75 1.75 15.2051 1.75 17V18C1.75 18.4142 1.41421 18.75 1 18.75C0.585786 18.75 0.25 18.4142 0.25 18V17ZM16.25 13C16.25 12.5858 16.5858 12.25 17 12.25C19.6234 12.25 21.75 14.3766 21.75 17V18C21.75 18.4142 21.4142 18.75 21 18.75C20.5858 18.75 20.25 18.4142 20.25 18V17C20.25 15.2051 18.7949 13.75 17 13.75C16.5858 13.75 16.25 13.4142 16.25 13Z" fill="black"/>
</svg>
