<?xml version="1.0" standalone="no"?>
<!DOCTYPE svg PUBLIC "-//W3C//DTD SVG 1.1//EN" "http://www.w3.org/Graphics/SVG/1.1/DTD/svg11.dtd" >
<svg xmlns="http://www.w3.org/2000/svg" xmlns:xlink="http://www.w3.org/1999/xlink" version="1.1">
<metadata></metadata>
<defs>
<font id="graphieregular" horiz-adv-x="1331" >
<font-face units-per-em="2048" ascent="1536" descent="-512" />
<missing-glyph horiz-adv-x="450" />
<glyph unicode="&#xfb01;" horiz-adv-x="1130" d="M25 807v151h176v156q0 162 81.5 251t229.5 89q106 0 178 -35v-164h-6q-65 43 -147 43q-76 0 -119 -48.5t-43 -139.5v-152h622v-958h-174v807h-448v-807h-174v807h-176zM795 1260q0 51 31.5 82.5t82.5 31.5t83 -31.5t32 -82.5t-32 -83t-83 -32t-82.5 32t-31.5 83z" />
<glyph unicode="&#xfb03;" horiz-adv-x="1742" d="M25 807v151h176v136q0 163 83 251.5t238 88.5q117 0 189 -35v-164h-9q-65 43 -155 43q-84 0 -128 -48t-44 -140v-132h438v156q0 162 81.5 251t229.5 89q107 0 179 -35v-164h-7q-65 43 -147 43q-76 0 -119 -48.5t-43 -139.5v-152h623v-958h-174v807h-449v-807h-174v807 h-438v-807h-174v807h-176zM1407 1260q0 51 32 82.5t83 31.5t82.5 -31.5t31.5 -82.5t-31.5 -83t-82.5 -32t-83 32t-32 83z" />
<glyph horiz-adv-x="0" />
<glyph horiz-adv-x="682" />
<glyph unicode=" "  horiz-adv-x="450" />
<glyph unicode="&#x09;" horiz-adv-x="450" />
<glyph unicode="&#xa0;" horiz-adv-x="450" />
<glyph unicode="!" horiz-adv-x="514" d="M139 98q0 51 34 85t85 34t84 -34t33 -85t-33 -84.5t-84 -33.5t-85 33.5t-34 84.5zM154 1360h206l-22 -979h-160z" />
<glyph unicode="&#x22;" horiz-adv-x="839" d="M152 1360h165l-16 -600h-133zM510 1360h166l-17 -600h-133z" />
<glyph unicode="#" d="M57 387l17 123h272l51 360h-272l16 123h275l51 367h135l-51 -367h315l52 367h135l-52 -367h273l-17 -123h-274l-51 -360h274l-16 -123h-275l-55 -387h-135l55 387h-315l-55 -387h-136l56 387h-273zM481 510h316l51 360h-316z" />
<glyph unicode="$" d="M174 182v197h10q149 -140 410 -158v383q-219 19 -315.5 97.5t-96.5 232.5q0 157 109.5 254t302.5 112v162h143v-159q234 -12 350 -105v-194h-10q-108 117 -340 135v-371q216 -15 315 -99t101 -247q0 -158 -108 -253t-308 -112v-180h-143v180q-268 12 -420 125zM360 942 q0 -71 54 -108t180 -52v355q-113 -11 -173.5 -61.5t-60.5 -133.5zM737 223q115 10 176.5 61t61.5 134q0 75 -55 115t-183 57v-367z" />
<glyph unicode="%" horiz-adv-x="1548" d="M72 1042q0 155 81.5 246.5t225.5 91.5t225.5 -91.5t81.5 -246.5q0 -154 -81.5 -244.5t-225.5 -90.5t-225.5 90.5t-81.5 244.5zM211 1042q0 -97 46 -154t122 -57t122 57t46 154q0 99 -46 156t-122 57t-122 -57t-46 -156zM262 0l868 1360h156l-868 -1360h-156zM862 315 q0 155 81.5 246.5t225.5 91.5t226 -91.5t82 -246.5q0 -154 -82 -244.5t-226 -90.5t-225.5 90.5t-81.5 244.5zM1001 315q0 -97 46 -154t122 -57t122 57t46 154q0 99 -46 156t-122 57t-122 -57t-46 -156z" />
<glyph unicode="&#x26;" horiz-adv-x="1304" d="M90 348q0 124 63.5 216.5t198.5 164.5q-89 95 -124 166.5t-35 155.5q0 151 101 240t273 89q175 0 275 -82t100 -225q0 -124 -76.5 -213t-255.5 -168l334 -354q80 127 80 309q0 28 -4 78h168q4 -50 4 -72q0 -259 -139 -430l211 -223h-230l-100 106q-164 -126 -399 -126 q-207 0 -326 98t-119 270zM264 367q0 -112 73 -172t208 -60q165 0 284 84l-372 399q-103 -55 -148 -114t-45 -137zM367 1053q0 -60 26 -110.5t92 -117.5l23 -22q158 67 219 124.5t61 135.5q0 72 -58 117t-152 45q-95 0 -153 -47.5t-58 -124.5z" />
<glyph unicode="'" horiz-adv-x="468" d="M152 1360h165l-16 -600h-133z" />
<glyph unicode="(" horiz-adv-x="761" d="M174 575q0 219 78 420t227 365h183q-304 -340 -304 -785q0 -444 304 -784h-183q-149 164 -227 364.5t-78 419.5z" />
<glyph unicode=")" horiz-adv-x="761" d="M100 -209q303 339 303 784q0 446 -303 785h183q149 -164 227 -365t78 -420t-78 -419.5t-227 -364.5h-183z" />
<glyph unicode="*" horiz-adv-x="935" d="M66 1085l51 148l307 -133l-35 334h158l-35 -334l307 133l49 -148l-331 -71l227 -252l-127 -94l-170 293l-168 -293l-129 94l227 252z" />
<glyph unicode="+" d="M88 537v155h500v500h155v-500h500v-155h-500v-500h-155v500h-500z" />
<glyph unicode="," horiz-adv-x="514" d="M33 -258l160 455h180l-199 -455h-141z" />
<glyph unicode="-" horiz-adv-x="757" d="M94 471v176h570v-176h-570z" />
<glyph unicode="." horiz-adv-x="514" d="M139 98q0 51 34 85t85 34t84 -34t33 -85t-33 -84.5t-84 -33.5t-85 33.5t-34 84.5z" />
<glyph unicode="/" horiz-adv-x="843" d="M63 -164l560 1585h155l-557 -1585h-158z" />
<glyph unicode="0" d="M106 680q0 333 147 516.5t413 183.5t412.5 -183.5t146.5 -516.5t-146.5 -516.5t-412.5 -183.5t-413 183.5t-147 516.5zM291 680q0 -256 98 -396.5t277 -140.5t276.5 140.5t97.5 396.5t-97.5 396.5t-276.5 140.5t-277 -140.5t-98 -396.5z" />
<glyph unicode="1" d="M305 899v191l502 270h147v-1360h-182v1149z" />
<glyph unicode="2" d="M193 0v174l284 225q284 226 384 342t100 228q0 121 -81.5 184.5t-238.5 63.5q-116 0 -227 -45t-193 -125h-10v196q83 64 197 100.5t231 36.5q244 0 375 -103.5t131 -297.5q0 -163 -115.5 -310.5t-425.5 -377.5l-166 -123v-4h707v-164h-952z" />
<glyph unicode="3" d="M186 125v201h11q67 -85 189.5 -134t264.5 -49q167 0 258.5 64.5t91.5 183.5q0 219 -337 219h-209v162h180q172 0 256 52t84 159q0 113 -86.5 173.5t-245.5 60.5q-119 0 -230 -46t-186 -127h-10v201q78 63 196 99t246 36q234 0 367 -99t133 -273q0 -109 -51.5 -188 t-149.5 -122v-4q111 -42 170.5 -125.5t59.5 -201.5q0 -182 -141.5 -284.5t-391.5 -102.5q-148 0 -273.5 39t-195.5 106z" />
<glyph unicode="4" d="M100 272v152l783 936h190v-924h195v-164h-195v-272h-182v272h-791zM317 436h574v688z" />
<glyph unicode="5" d="M168 117v190h10q72 -78 192.5 -121t266.5 -43q174 0 269 76.5t95 214.5q0 137 -99 208t-294 71q-213 0 -385 -86h-10v733h885v-164h-719v-362q116 40 301 40q238 0 373 -116.5t135 -323.5q0 -213 -144.5 -333.5t-398.5 -120.5q-151 0 -277.5 36.5t-199.5 100.5z" />
<glyph unicode="6" d="M129 643q0 346 164.5 541.5t456.5 195.5q240 0 362 -96v-186h-10q-119 119 -336 119q-205 0 -322.5 -130t-128.5 -368h4q73 79 184 122.5t245 43.5q214 0 342.5 -122.5t128.5 -320.5q0 -209 -139 -335.5t-365 -126.5q-278 0 -432 174t-154 489zM324 510 q15 -171 118.5 -269t268.5 -98q144 0 232.5 81.5t88.5 213.5q0 130 -85 207.5t-226 77.5q-129 0 -234 -55.5t-163 -157.5z" />
<glyph unicode="7" d="M143 1196v164h1098v-174l-776 -1186h-215l792 1196h-899z" />
<glyph unicode="8" d="M104 362q0 242 250 322v4q-209 87 -209 320q0 175 138 273.5t383 98.5q244 0 382 -98.5t138 -273.5q0 -221 -209 -301v-5q250 -83 250 -340q0 -180 -148.5 -281t-412.5 -101t-413 101t-149 281zM291 379q0 -114 98 -175t277 -61t276.5 61t97.5 175q0 118 -92 174.5 t-282 56.5t-282.5 -56.5t-92.5 -174.5zM330 991q0 -112 82.5 -165.5t253.5 -53.5t253 53.5t82 165.5q0 109 -87 167.5t-248 58.5t-248.5 -58.5t-87.5 -167.5z" />
<glyph unicode="9" d="M113 918q0 209 138.5 335.5t364.5 126.5q278 0 432 -174t154 -489q0 -346 -164 -541.5t-456 -195.5q-241 0 -363 96v186h10q119 -119 336 -119q206 0 323.5 129.5t127.5 368.5h-4q-73 -79 -183.5 -122.5t-244.5 -43.5q-214 0 -342.5 122.5t-128.5 320.5zM299 922 q0 -130 85 -207.5t226 -77.5q129 0 234.5 55.5t163.5 157.5q-15 171 -118.5 269t-268.5 98q-145 0 -233.5 -81.5t-88.5 -213.5z" />
<glyph unicode=":" horiz-adv-x="514" d="M139 98q0 51 34 85t85 34t84 -34t33 -85t-33 -84.5t-84 -33.5t-85 33.5t-34 84.5zM139 821q0 51 34 85t85 34t84 -34t33 -85t-33 -85t-84 -34t-85 34t-34 85z" />
<glyph unicode=";" horiz-adv-x="514" d="M33 -258l160 455h180l-199 -455h-141zM139 821q0 51 34 85t85 34t84 -34t33 -85t-33 -85t-84 -34t-85 34t-34 85z" />
<glyph unicode="&#x3c;" d="M145 549v131l1043 461v-168l-823 -357v-4l823 -354v-170z" />
<glyph unicode="=" d="M125 272v156h1081v-156h-1081zM125 801v155h1081v-155h-1081z" />
<glyph unicode="&#x3e;" d="M143 88v168l824 356v4l-824 355v170l1043 -461v-131z" />
<glyph unicode="?" horiz-adv-x="995" d="M47 1047v196q84 65 194 101t226 36q221 0 347 -101.5t126 -279.5q0 -160 -101.5 -262t-330.5 -174v-182h-170v293q225 54 321.5 127t96.5 188q0 107 -76.5 167.5t-212.5 60.5q-120 0 -227 -44t-183 -126h-10zM305 98q0 51 33.5 85t83.5 34q51 0 85 -34t34 -85t-34 -84.5 t-85 -33.5q-50 0 -83.5 33.5t-33.5 84.5z" />
<glyph unicode="@" horiz-adv-x="1603" d="M106 563q0 210 94 378t260.5 262.5t373.5 94.5q311 0 500.5 -186.5t189.5 -484.5q0 -192 -82 -303t-213 -111q-133 0 -160 125h-4q-88 -125 -274 -125q-151 0 -250 102t-99 258q0 158 99 261.5t250 103.5q88 0 157 -31.5t111 -87.5h4l2 105h106v-496q0 -58 16.5 -82 t55.5 -24q77 0 123.5 81t46.5 228q0 254 -159 411.5t-425 157.5q-171 0 -308 -82t-214.5 -228t-77.5 -329q0 -175 82.5 -313.5t229 -215.5t329.5 -77q137 0 256 38t197 107h8v-116q-178 -127 -465 -127q-163 0 -304 52.5t-241.5 145t-157.5 224t-57 284.5zM567 573 q0 -111 68 -181t176 -70q107 0 175.5 70.5t68.5 180.5q0 113 -68 183.5t-176 70.5q-109 0 -176.5 -70t-67.5 -184z" />
<glyph unicode="A" horiz-adv-x="1490" d="M37 0l614 1360h187l616 -1360h-211l-125 283h-751l-125 -283h-205zM442 457h600l-297 680h-4z" />
<glyph unicode="B" horiz-adv-x="1306" d="M160 0v1360h559q233 0 352 -92.5t119 -274.5q0 -219 -193 -297v-4q242 -66 242 -319q0 -185 -119 -279t-350 -94h-610zM356 174h408q276 0 276 213t-288 213h-396v-426zM356 774h349q290 0 290 207q0 205 -280 205h-359v-412z" />
<glyph unicode="C" horiz-adv-x="1335" d="M74 680q0 203 90 362.5t254 248.5t375 89q278 0 440 -131v-217h-10q-151 174 -422 174q-236 0 -382.5 -146t-146.5 -380t146.5 -380t382.5 -146q271 0 422 174h10v-217q-166 -131 -440 -131q-211 0 -375 89t-254 248.5t-90 362.5z" />
<glyph unicode="D" horiz-adv-x="1484" d="M160 0v1360h530q339 0 530 -180t191 -498q0 -321 -190.5 -501.5t-530.5 -180.5h-530zM356 174h324q252 0 392 133.5t140 374.5q0 238 -140 371t-392 133h-324v-1012z" />
<glyph unicode="E" horiz-adv-x="1255" d="M160 0v1360h995v-174h-799v-412h652v-174h-652v-426h799v-174h-995z" />
<glyph unicode="F" horiz-adv-x="1216" d="M160 0v1360h995v-174h-799v-430h652v-174h-652v-582h-196z" />
<glyph unicode="G" horiz-adv-x="1441" d="M74 680q0 319 202 509.5t537 190.5q308 0 496 -131v-217h-11q-183 174 -477 174q-248 0 -398.5 -143.5t-150.5 -382.5t150.5 -382.5t398.5 -143.5q171 0 299 55v315h-393v174h582v-587q-188 -131 -496 -131q-335 0 -537 190.5t-202 509.5z" />
<glyph unicode="H" horiz-adv-x="1505" d="M160 0v1360h196v-584h793v584h197v-1360h-197v602h-793v-602h-196z" />
<glyph unicode="I" horiz-adv-x="516" d="M160 0v1360h196v-1360h-196z" />
<glyph unicode="J" horiz-adv-x="1038" d="M51 109v208h10q58 -76 153 -119.5t202 -43.5q147 0 223 81.5t76 241.5v883h196v-901q0 -232 -122 -355.5t-355 -123.5q-232 0 -383 129z" />
<glyph unicode="K" horiz-adv-x="1308" d="M160 0v1360h196v-617l639 617h256l-710 -670l731 -690h-266l-650 627v-627h-196z" />
<glyph unicode="L" horiz-adv-x="1179" d="M160 0v1360h196v-1186h770v-174h-966z" />
<glyph unicode="M" horiz-adv-x="1918" d="M160 0v1360h297l495 -1106h4l500 1106h303v-1360h-196v1155h-4l-521 -1155h-174l-512 1145h-4v-1145h-188z" />
<glyph unicode="N" horiz-adv-x="1513" d="M160 0v1360h274l727 -1096h4v1096h189v-1360h-238l-764 1161h-4v-1161h-188z" />
<glyph unicode="O" horiz-adv-x="1564" d="M74 680q0 152 52.5 282t145 222t224.5 144t286 52q205 0 366.5 -89t252 -249t90.5 -362t-90.5 -362t-252 -249t-366.5 -89q-154 0 -286 52t-224.5 144t-145 222t-52.5 282zM272 680q0 -232 142 -379t368 -147t368 147t142 379t-142 379t-368 147t-368 -147t-142 -379z " />
<glyph unicode="P" horiz-adv-x="1294" d="M160 0v1360h588q240 0 362.5 -108t122.5 -320t-123 -321t-362 -109h-392v-502h-196zM356 676h383q295 0 295 256q0 254 -295 254h-383v-510z" />
<glyph unicode="Q" horiz-adv-x="1558" d="M74 680q0 152 52.5 282t145 222t224.5 144t286 52q205 0 366.5 -89t252 -249t90.5 -362q0 -172 -67 -315t-189 -238l225 -283h-217l-156 195q-136 -59 -305 -59q-154 0 -286 52t-224.5 144t-145 222t-52.5 282zM272 680q0 -232 142 -379t368 -147q110 0 189 32l-250 314 h217l182 -228q82 70 127 175t45 233q0 232 -142 379t-368 147t-368 -147t-142 -379z" />
<glyph unicode="R" horiz-adv-x="1351" d="M160 0v1360h598q239 0 362 -106.5t123 -313.5q0 -337 -315 -405l356 -535h-233l-328 518h-367v-518h-196zM356 692h394q294 0 294 248q0 246 -294 246h-394v-494z" />
<glyph unicode="S" horiz-adv-x="1189" d="M86 119v209h10q180 -174 500 -174q156 0 242 59t86 166q0 96 -76.5 143.5t-272.5 69.5q-264 29 -372.5 116.5t-108.5 262.5q0 188 139 298.5t375 110.5q139 0 254.5 -30t181.5 -84v-211h-10q-67 73 -177.5 112t-250.5 39q-145 0 -231 -61t-86 -164q0 -90 72 -133.5 t262 -63.5q270 -27 382.5 -120.5t112.5 -280.5q0 -189 -138 -296t-382 -107q-337 0 -512 139z" />
<glyph unicode="T" horiz-adv-x="1193" d="M51 1186v174h1092v-174h-447v-1186h-196v1186h-449z" />
<glyph unicode="U" horiz-adv-x="1419" d="M127 573v787h197v-774q0 -211 99.5 -321.5t289.5 -110.5q191 0 291 110.5t100 321.5v774h188v-787q0 -292 -148 -442.5t-435 -150.5q-286 0 -434 150.5t-148 442.5z" />
<glyph unicode="V" horiz-adv-x="1409" d="M37 1360h211l457 -1112h4l458 1112h205l-573 -1360h-191z" />
<glyph unicode="W" horiz-adv-x="2058" d="M43 1360h207l338 -1063h4l352 1063h172l354 -1067h5l340 1067h200l-444 -1360h-197l-344 1036h-4l-344 -1036h-197z" />
<glyph unicode="X" horiz-adv-x="1425" d="M59 0l521 692l-500 668h239l398 -545l397 545h232l-500 -668l520 -692h-238l-417 571l-420 -571h-232z" />
<glyph unicode="Y" horiz-adv-x="1380" d="M16 1360h240l438 -602l439 602h231l-573 -766v-594h-197v592z" />
<glyph unicode="Z" horiz-adv-x="1308" d="M98 0v166l842 1020h-801v174h1061v-166l-842 -1020h852v-174h-1112z" />
<glyph unicode="[" horiz-adv-x="761" d="M176 -209v1569h477v-139h-309v-1293h309v-137h-477z" />
<glyph unicode="\" horiz-adv-x="843" d="M63 1421h158l557 -1585h-155z" />
<glyph unicode="]" horiz-adv-x="761" d="M109 -70h309v1293h-309v137h477v-1569h-477v139z" />
<glyph unicode="^" d="M106 573l494 787h131l494 -787h-181l-378 613l-379 -613h-181z" />
<glyph unicode="_" horiz-adv-x="1024" d="M0 -141h1024v-119h-1024v119z" />
<glyph unicode="`" horiz-adv-x="1024" d="M190 1440h197l234 -336h-168z" />
<glyph unicode="a" horiz-adv-x="1216" d="M74 479q0 218 135 359t344 141q125 0 220.5 -45.5t150.5 -128.5h4l6 153h147v-958h-147l-6 152h-4q-55 -81 -151 -126.5t-220 -45.5q-209 0 -344 140.5t-135 358.5zM250 479q0 -152 92 -248t240 -96q146 0 238.5 96t92.5 248t-92.5 248t-238.5 96q-148 0 -240 -96 t-92 -248z" />
<glyph unicode="b" horiz-adv-x="1216" d="M135 0v1434h174v-598h4q121 143 349 143q209 0 345 -141t136 -359t-135.5 -358.5t-345.5 -140.5q-125 0 -220 44.5t-151 127.5h-4l-4 -152h-148zM303 479q0 -152 92 -248t240 -96q146 0 239 96t93 248t-93 248t-239 96q-148 0 -240 -96t-92 -248z" />
<glyph unicode="c" horiz-adv-x="999" d="M74 479q0 221 142 360.5t374 139.5q203 0 313 -94v-191h-8q-108 129 -289 129q-163 0 -259.5 -94.5t-96.5 -249.5q0 -154 96.5 -249t259.5 -95q184 0 289 129h8v-192q-112 -92 -313 -92q-231 0 -373.5 139.5t-142.5 359.5z" />
<glyph unicode="d" horiz-adv-x="1216" d="M74 479q0 218 135 359t344 141q230 0 350 -145h4v600h174v-1434h-147l-6 152h-4q-55 -81 -151 -126.5t-220 -45.5q-209 0 -344 140.5t-135 358.5zM250 479q0 -152 92 -248t240 -96q146 0 238.5 96t92.5 248t-92.5 248t-238.5 96q-148 0 -240 -96t-92 -248z" />
<glyph unicode="e" horiz-adv-x="1130" d="M74 479q0 220 139.5 360t359.5 140q221 0 353.5 -126t132.5 -335v-96h-809q19 -134 121 -210.5t264 -76.5q217 0 354 131h8v-176q-135 -110 -366 -110q-253 0 -405 136.5t-152 362.5zM250 567h647q-19 117 -105.5 186.5t-216.5 69.5q-123 0 -211.5 -70t-113.5 -186z" />
<glyph unicode="f" horiz-adv-x="708" d="M25 807v151h176v156q0 163 83 251.5t238 88.5q117 0 189 -35v-164h-9q-65 43 -155 43q-82 0 -126 -48t-44 -140v-152h307v-151h-307v-807h-176v807h-176z" />
<glyph unicode="g" horiz-adv-x="1216" d="M74 483q0 218 134.5 357t344.5 139q125 0 220.5 -45.5t150.5 -128.5h4l6 153h147v-882q0 -228 -137 -357t-381 -129q-125 0 -229 33.5t-170 93.5v183h8q59 -72 157 -113t216 -41q174 0 268 88t94 252v47h-4q-120 -145 -350 -145q-210 0 -344.5 138.5t-134.5 356.5z M250 483q0 -152 92 -246t240 -94q147 0 239 94t92 246t-92 246t-239 94q-148 0 -240 -94t-92 -246z" />
<glyph unicode="h" horiz-adv-x="1138" d="M135 0v1434h174v-594h4q105 139 322 139q183 0 288 -112.5t105 -309.5v-557h-174v537q0 135 -69 210.5t-191 75.5q-134 0 -209.5 -86.5t-75.5 -238.5v-498h-174z" />
<glyph unicode="i" horiz-adv-x="442" d="M106 1260q0 51 32 82.5t83 31.5t83 -31.5t32 -82.5t-32 -83t-83 -32t-83 32t-32 83zM135 0v958h174v-958h-174z" />
<glyph unicode="j" horiz-adv-x="442" d="M-53 -229h8q35 -25 82 -25q53 0 75.5 30.5t22.5 100.5v1081h174v-1093q0 -275 -241 -275q-66 0 -121 21v160zM106 1260q0 51 32 82.5t83 31.5t83 -31.5t32 -82.5t-32 -83t-83 -32t-83 32t-32 83z" />
<glyph unicode="k" horiz-adv-x="1013" d="M135 0v1434h174v-893l430 417h228l-492 -469l512 -489h-237l-441 428v-428h-174z" />
<glyph unicode="l" horiz-adv-x="444" d="M135 0v1434h174v-1434h-174z" />
<glyph unicode="m" horiz-adv-x="1740" d="M135 0v958h146l6 -139h4q93 160 315 160q108 0 187 -47t122 -137h5q88 184 346 184q175 0 269.5 -108t94.5 -308v-563h-174v545q0 136 -59.5 207t-173.5 71q-123 0 -187.5 -83t-64.5 -242v-498h-174v545q0 137 -59.5 207.5t-174.5 70.5q-124 0 -189 -81t-65 -234v-508 h-174z" />
<glyph unicode="n" horiz-adv-x="1138" d="M135 0v958h148l4 -151h4q104 172 344 172q183 0 288 -112.5t105 -309.5v-557h-174v537q0 135 -69 210.5t-191 75.5q-134 0 -209.5 -86.5t-75.5 -238.5v-498h-174z" />
<glyph unicode="o" horiz-adv-x="1163" d="M74 479q0 220 142.5 360t365.5 140t365.5 -140t142.5 -360t-142.5 -359.5t-365.5 -139.5t-365.5 139.5t-142.5 359.5zM250 479q0 -152 92 -248t240 -96q146 0 238.5 96t92.5 248t-92.5 248t-238.5 96q-148 0 -240 -96t-92 -248z" />
<glyph unicode="p" horiz-adv-x="1216" d="M135 -389v1347h148l4 -151h4q57 81 152 126.5t219 45.5q209 0 345 -141t136 -359t-135.5 -358.5t-345.5 -140.5q-228 0 -349 143h-4v-512h-174zM303 479q0 -152 92 -248t240 -96q146 0 239 96t93 248t-93 248t-239 96q-148 0 -240 -96t-92 -248z" />
<glyph unicode="q" horiz-adv-x="1216" d="M74 479q0 218 135 359t344 141q125 0 220.5 -45.5t150.5 -128.5h4l6 153h147v-1347h-174v514h-4q-120 -145 -350 -145q-209 0 -344 140.5t-135 358.5zM250 479q0 -152 92 -248t240 -96q146 0 238.5 96t92.5 248t-92.5 248t-238.5 96q-148 0 -240 -96t-92 -248z" />
<glyph unicode="r" horiz-adv-x="763" d="M135 0v958h148l4 -153h4q86 174 303 174q84 0 145 -37v-174h-8q-64 45 -149 45q-273 0 -273 -377v-436h-174z" />
<glyph unicode="s" horiz-adv-x="884" d="M82 80v188h8q118 -133 350 -133q98 0 155.5 39t57.5 105q0 60 -49.5 88.5t-175.5 35.5q-187 12 -265.5 75.5t-78.5 195.5q0 137 102 221t269 84q200 0 313 -74v-184h-8q-99 102 -301 102q-92 0 -147.5 -39t-55.5 -104q0 -54 46.5 -79.5t164.5 -31.5q194 -10 276 -78.5 t82 -211.5q0 -138 -102 -218.5t-277 -80.5q-243 0 -364 100z" />
<glyph unicode="t" horiz-adv-x="759" d="M25 807v151h180l26 261h144v-261h309v-151h-309v-490q0 -86 43.5 -134t120.5 -48q89 0 141 55h8v-176q-64 -34 -174 -34q-151 0 -232 86t-81 247v494h-176z" />
<glyph unicode="u" horiz-adv-x="1138" d="M111 401v557h174v-538q0 -135 69 -210t191 -75q133 0 208.5 87t75.5 239v497h175v-958h-148l-4 152h-4q-104 -172 -344 -172q-183 0 -288 111.5t-105 309.5z" />
<glyph unicode="v" horiz-adv-x="1017" d="M16 958h189l305 -776h4l307 776h180l-403 -958h-178z" />
<glyph unicode="w" horiz-adv-x="1550" d="M16 958h187l239 -739h4l263 739h141l262 -737h4l242 737h176l-338 -958h-170l-248 702h-4l-250 -702h-170z" />
<glyph unicode="x" horiz-adv-x="1071" d="M39 0l383 492l-363 466h215l267 -358l262 358h209l-361 -466l381 -492h-217l-285 387l-284 -387h-207z" />
<glyph unicode="y" horiz-adv-x="1017" d="M16 958h189l305 -741h4l307 741h180l-598 -1347h-180l195 424z" />
<glyph unicode="z" horiz-adv-x="1005" d="M86 0v139l590 668h-559v151h792v-141l-587 -665h598v-152h-834z" />
<glyph unicode="{" horiz-adv-x="794" d="M47 506v139h41q93 0 136.5 49t43.5 160v213q0 293 295 293h125v-139h-96q-154 0 -154 -154v-188q0 -128 -40 -201.5t-124 -99.5v-5q84 -26 124 -99.5t40 -201.5v-188q0 -154 154 -154h96v-139h-125q-295 0 -295 293v213q0 111 -43.5 160t-136.5 49h-41z" />
<glyph unicode="|" horiz-adv-x="686" d="M276 -389v1823h134v-1823h-134z" />
<glyph unicode="}" horiz-adv-x="794" d="M106 -70h97q153 0 153 154v188q0 128 40 201.5t124 99.5v5q-84 26 -124 99.5t-40 201.5v188q0 154 -153 154h-97v139h125q295 0 295 -293v-213q0 -111 43.5 -160t137.5 -49h41v-139h-41q-94 0 -137.5 -49t-43.5 -160v-213q0 -293 -295 -293h-125v139z" />
<glyph unicode="~" d="M72 514q155 279 350 279q71 0 136.5 -25t154.5 -90q68 -50 109 -68t83 -18q57 0 111 47t117 152l127 -76q-155 -279 -351 -279q-71 0 -134.5 24.5t-153.5 90.5q-67 49 -109.5 67.5t-85.5 18.5q-57 0 -110.5 -47t-116.5 -152z" />
<glyph unicode="&#xa1;" horiz-adv-x="514" d="M139 1262q0 51 33 84.5t84 33.5t85 -33.5t34 -84.5t-34 -85t-85 -34t-84 34t-33 85zM154 0l22 979h160l24 -979h-206z" />
<glyph unicode="&#xa2;" d="M213 569q0 217 131.5 354t355.5 156v181h144v-183q158 -11 264 -90v-201h-10q-100 113 -254 127v-690q157 15 254 129h10v-202q-94 -79 -264 -91v-182h-144v180q-224 19 -355.5 156t-131.5 356zM397 569q0 -144 80 -234t223 -110v686q-143 -20 -223 -110t-80 -232z" />
<glyph unicode="&#xa3;" d="M178 0v174q79 58 112.5 126.5t33.5 182.5v115h-146v158h146v168q0 221 113 338.5t327 117.5q231 0 381 -114v-201h-10q-143 152 -347 152q-138 0 -210 -79.5t-72 -232.5v-149h485v-158h-485v-76q0 -129 -35 -211.5t-115 -142.5v-4h789v-164h-967z" />
<glyph unicode="&#xa4;" d="M184 301l152 148q-72 101 -72 231t72 231l-152 148l103 102l147 -151q99 71 232 71q132 0 231 -71l147 151l103 -102l-152 -148q72 -106 72 -231t-72 -231l152 -148l-103 -102l-147 151q-99 -71 -231 -71q-133 0 -232 71l-147 -151zM406 680q0 -112 75 -188t185 -76 t185 76t75 188t-75 188t-185 76t-185 -76t-75 -188z" />
<glyph unicode="&#xa5;" d="M86 1360h223l361 -502l360 502h215l-467 -623h404v-139h-424v-182h424v-140h-424v-276h-183v276h-423v140h423v182h-423v139h401z" />
<glyph unicode="&#xa6;" horiz-adv-x="686" d="M276 -389v799h134v-799h-134zM276 635v799h134v-799h-134z" />
<glyph unicode="&#xa7;" horiz-adv-x="1116" d="M127 598q0 91 44 162.5t124 111.5v5q-135 72 -135 247q0 152 110 241t299 89q220 0 336 -78v-176h-8q-51 47 -136 73.5t-188 26.5q-115 0 -185.5 -46.5t-70.5 -123.5q0 -70 60.5 -106t212.5 -53q216 -24 307.5 -101t91.5 -227q0 -87 -43 -157t-121 -111v-4 q131 -73 131 -254q0 -154 -109 -240t-304 -86q-117 0 -220 26t-169 72v179h8q130 -121 375 -121q121 0 191.5 45.5t70.5 122.5q0 73 -61 111.5t-218 56.5q-214 24 -303.5 98t-89.5 217zM287 616q0 -79 59 -117.5t217 -60.5q14 -2 40.5 -6t39.5 -6q87 17 136.5 71t49.5 132 q0 84 -62.5 125.5t-221.5 60.5q-32 4 -62 8q-90 -14 -143 -69.5t-53 -137.5z" />
<glyph unicode="&#xa8;" horiz-adv-x="1024" d="M203 1260q0 47 30 76.5t76 29.5q49 0 80 -29.5t31 -76.5q0 -48 -31 -78.5t-80 -30.5q-46 0 -76 31t-30 78zM604 1260q0 47 31 76.5t80 29.5q46 0 76 -29.5t30 -76.5t-30 -78t-76 -31q-49 0 -80 30.5t-31 78.5z" />
<glyph unicode="&#xa9;" horiz-adv-x="1615" d="M106 680q0 198 91 358t251.5 251t358.5 91t358 -91t251 -251t91 -358t-91 -358t-251 -251t-358 -91t-358.5 91t-251.5 251t-91 358zM227 680q0 -168 75.5 -304t208 -212t296.5 -76q165 0 298 76t208.5 211.5t75.5 304.5t-75.5 304.5t-208.5 211.5t-298 76 q-164 0 -296.5 -76t-208 -212t-75.5 -304zM446 680q0 162 106 265.5t275 103.5q143 0 228 -64v-137h-8q-75 90 -213 90q-118 0 -189.5 -71t-71.5 -187t71.5 -187t189.5 -71q135 0 213 90h8v-137q-89 -64 -228 -64q-169 0 -275 103.5t-106 265.5z" />
<glyph unicode="&#xaa;" horiz-adv-x="917" d="M82 1032q0 152 95 250t243 98q165 0 246 -108h4l4 88h119v-664h-119l-4 95h-4q-82 -109 -246 -109q-148 0 -243 99t-95 251zM221 1032q0 -100 61 -163.5t156 -63.5t156 63.5t61 163.5t-61 162.5t-156 62.5t-156 -62.5t-61 -162.5z" />
<glyph unicode="&#xab;" horiz-adv-x="1001" d="M63 473v12l420 430v-184l-254 -252l254 -252v-186zM475 473v12l420 430v-184l-254 -252l254 -252v-186z" />
<glyph unicode="&#xac;" d="M115 680v156h1104v-639h-156v483h-948z" />
<glyph unicode="&#xad;" horiz-adv-x="757" d="M94 471v176h570v-176h-570z" />
<glyph unicode="&#xae;" horiz-adv-x="1615" d="M106 680q0 198 91 358t251.5 251t358.5 91t358 -91t251 -251t91 -358t-91 -358t-251 -251t-358 -91t-358.5 91t-251.5 251t-91 358zM227 680q0 -168 75.5 -304t208 -212t296.5 -76q165 0 298 76t208.5 211.5t75.5 304.5t-75.5 304.5t-208.5 211.5t-298 76 q-164 0 -296.5 -76t-208 -212t-75.5 -304zM541 322v716h315q130 0 196 -57t66 -168q0 -183 -168 -221l189 -270h-146l-168 262h-161v-262h-123zM664 694h188q139 0 139 117t-139 117h-188v-234z" />
<glyph unicode="&#xaf;" horiz-adv-x="1024" d="M190 1186v141h644v-141h-644z" />
<glyph unicode="&#xb0;" horiz-adv-x="794" d="M92 1075q0 132 87 218.5t218 86.5q132 0 218.5 -86.5t86.5 -218.5q0 -131 -86.5 -218t-218.5 -87q-131 0 -218 87t-87 218zM225 1075q0 -79 48.5 -129.5t123.5 -50.5q77 0 126.5 50.5t49.5 129.5t-49.5 129.5t-126.5 50.5q-75 0 -123.5 -50.5t-48.5 -129.5z" />
<glyph unicode="&#xb1;" d="M115 0v156h473v471h-473v155h473v455h155v-455h474v-155h-474v-471h474v-156h-1102z" />
<glyph unicode="&#xb2;" horiz-adv-x="839" d="M131 795v127l180 139q157 121 212 188.5t55 134.5q0 69 -47 106.5t-134 37.5q-141 0 -245 -107h-9v144q50 38 118 60t138 22q149 0 229.5 -65.5t80.5 -186.5q0 -96 -63 -179t-243 -223l-96 -75v-5h402v-118h-578z" />
<glyph unicode="&#xb3;" horiz-adv-x="839" d="M133 868v146h8q41 -53 113 -83t158 -30q92 0 141 34t49 101q0 127 -188 127h-121v117h104q193 0 193 121q0 127 -184 127q-71 0 -136.5 -28t-111.5 -77h-8v144q46 37 118 58.5t150 21.5q142 0 222.5 -61.5t80.5 -170.5q0 -131 -121 -188v-4q135 -54 135 -201 q0 -114 -84.5 -177t-236.5 -63q-89 0 -164.5 23t-116.5 63z" />
<glyph unicode="&#xb4;" horiz-adv-x="1024" d="M406 1104l233 336h197l-263 -336h-167z" />
<glyph unicode="&#xb5;" horiz-adv-x="1175" d="M141 -389v1347h174v-538q0 -135 68.5 -210t191.5 -75q132 0 208.5 87t76.5 239v497h174v-958h-147l-6 154h-4q-103 -174 -345 -174q-132 0 -217 61v-430h-174z" />
<glyph unicode="&#xb6;" horiz-adv-x="1181" d="M74 1006q0 212 122.5 320t364.5 108h545v-117h-115v-1706h-123v1706h-254v-1706h-122v967q-207 15 -312.5 123t-105.5 305z" />
<glyph unicode="&#xb7;" horiz-adv-x="514" d="M139 680q0 51 34 85t85 34t84 -34t33 -85t-33 -85t-84 -34t-85 34t-34 85z" />
<glyph unicode="&#xb8;" horiz-adv-x="1024" d="M317 -258h9q66 -41 159 -41q48 0 71.5 15.5t23.5 39.5q0 58 -99 58q-38 0 -94 -17v27l92 176h99l-58 -113v-4h8q91 0 138 -38t47 -105q0 -150 -224 -150q-105 0 -172 31v121z" />
<glyph unicode="&#xb9;" horiz-adv-x="839" d="M260 1339v131l248 164h104v-839h-131v684z" />
<glyph unicode="&#xba;" horiz-adv-x="876" d="M82 1032q0 153 100 250.5t256 97.5q157 0 257 -97t100 -251q0 -155 -100 -252.5t-257 -97.5q-156 0 -256 97.5t-100 252.5zM221 1032q0 -100 61 -163.5t156 -63.5t156 63.5t61 163.5t-61 162.5t-156 62.5t-156 -62.5t-61 -162.5z" />
<glyph unicode="&#xbb;" horiz-adv-x="1001" d="M104 43v184l254 252l-254 252v187l420 -433v-12zM516 43v184l254 252l-254 252v187l420 -433v-12z" />
<glyph unicode="&#xbc;" horiz-adv-x="1988" d="M260 1065v131l248 164h104v-840h-131v684zM571 0l881 1360h141l-880 -1360h-142zM1235 164v112l459 564h131v-557h112v-119h-112v-164h-131v164h-459zM1378 283h316v385z" />
<glyph unicode="&#xbd;" horiz-adv-x="1988" d="M260 1065v131l248 164h104v-840h-131v684zM483 0l881 1360h141l-880 -1360h-142zM1280 0v127l180 139q156 120 211 188t55 136q0 69 -46 106t-134 37q-143 0 -246 -106h-8v143q50 38 118 60t138 22q149 0 229.5 -65.5t80.5 -186.5q0 -96 -62.5 -178.5t-243.5 -222.5 l-96 -76v-4h402v-119h-578z" />
<glyph unicode="&#xbe;" horiz-adv-x="1988" d="M133 594v145h8q41 -53 113 -82.5t158 -29.5q92 0 141 34t49 101q0 127 -188 127h-121v117h104q193 0 193 120q0 127 -184 127q-71 0 -137 -27.5t-111 -76.5h-8v143q46 37 118 58.5t150 21.5q143 0 223 -61t80 -170q0 -132 -121 -189v-4q135 -54 135 -200 q0 -114 -84.5 -177t-236.5 -63q-89 0 -164.5 23t-116.5 63zM582 0l880 1360h142l-881 -1360h-141zM1235 164v112l459 564h131v-557h112v-119h-112v-164h-131v164h-459zM1378 283h316v385z" />
<glyph unicode="&#xbf;" horiz-adv-x="995" d="M55 360q0 160 101.5 262.5t330.5 174.5v182h170v-293q-224 -54 -320.5 -127t-96.5 -188q0 -107 76 -167.5t212 -60.5q120 0 227 44t183 126h10v-196q-84 -65 -194 -101t-226 -36q-221 0 -347 101t-126 279zM455 1262q0 51 33.5 84.5t84.5 33.5q50 0 83.5 -33.5 t33.5 -84.5t-33.5 -85t-83.5 -34q-51 0 -84.5 34t-33.5 85z" />
<glyph unicode="&#xc0;" horiz-adv-x="1490" d="M37 0l614 1360h187l616 -1360h-211l-125 283h-751l-125 -283h-205zM414 1825h196l234 -336h-168zM442 457h600l-297 680h-4z" />
<glyph unicode="&#xc1;" horiz-adv-x="1490" d="M37 0l614 1360h187l616 -1360h-211l-125 283h-751l-125 -283h-205zM442 457h600l-297 680h-4zM645 1489l234 336h196l-262 -336h-168z" />
<glyph unicode="&#xc2;" horiz-adv-x="1490" d="M37 0l614 1360h187l616 -1360h-211l-125 283h-751l-125 -283h-205zM408 1489l251 336h170l252 -336h-168l-168 211l-170 -211h-167zM442 457h600l-297 680h-4z" />
<glyph unicode="&#xc3;" horiz-adv-x="1490" d="M37 0l614 1360h187l616 -1360h-211l-125 283h-751l-125 -283h-205zM424 1509v148q26 51 75 80.5t107 29.5q40 0 74 -11t86 -46q71 -49 129 -49q101 0 164 121h8v-148q-25 -52 -73.5 -82t-108.5 -30q-40 0 -74.5 11.5t-85.5 45.5q-71 49 -129 49q-100 0 -164 -119h-8z M442 457h600l-297 680h-4z" />
<glyph unicode="&#xc4;" horiz-adv-x="1490" d="M37 0l614 1360h187l616 -1360h-211l-125 283h-751l-125 -283h-205zM436 1645q0 47 30.5 76.5t76.5 29.5q49 0 79.5 -29.5t30.5 -76.5q0 -48 -30.5 -78.5t-79.5 -30.5q-46 0 -76.5 31t-30.5 78zM442 457h600l-297 680h-4zM838 1645q0 47 30.5 76.5t79.5 29.5 q46 0 76.5 -29.5t30.5 -76.5t-30.5 -78t-76.5 -31q-49 0 -79.5 30.5t-30.5 78.5z" />
<glyph unicode="&#xc5;" horiz-adv-x="1490" d="M37 0l614 1360h187l616 -1360h-211l-125 283h-751l-125 -283h-205zM442 457h600l-297 680h-4zM549 1659q0 85 55.5 140.5t140.5 55.5t141 -55.5t56 -140.5t-56 -141t-141 -56t-140.5 56t-55.5 141zM657 1659q0 -38 25 -63t63 -25t63.5 25t25.5 63t-25.5 63t-63.5 25 t-63 -25t-25 -63z" />
<glyph unicode="&#xc6;" horiz-adv-x="2131" d="M16 0l942 1360h1074v-174h-799v-412h651v-174h-651v-426h799v-174h-996v283h-604l-192 -283h-224zM551 457h485v708h-4z" />
<glyph unicode="&#xc7;" horiz-adv-x="1335" d="M74 680q0 203 90 362.5t254 248.5t375 89q278 0 440 -131v-217h-10q-151 174 -422 174q-236 0 -382.5 -146t-146.5 -380t146.5 -380t382.5 -146q271 0 422 174h10v-217q-159 -125 -420 -131l-47 -93v-4h8q91 0 137.5 -38t46.5 -105q0 -150 -223 -150q-105 0 -172 31v121 h8q66 -41 160 -41q48 0 71 15.5t23 39.5q0 58 -98 58q-38 0 -94 -17v27l84 160q-290 25 -466.5 216t-176.5 480z" />
<glyph unicode="&#xc8;" horiz-adv-x="1255" d="M160 0v1360h995v-174h-799v-412h652v-174h-652v-426h799v-174h-995zM326 1825h196l234 -336h-168z" />
<glyph unicode="&#xc9;" horiz-adv-x="1255" d="M160 0v1360h995v-174h-799v-412h652v-174h-652v-426h799v-174h-995zM557 1489l234 336h196l-262 -336h-168z" />
<glyph unicode="&#xca;" horiz-adv-x="1255" d="M160 0v1360h995v-174h-799v-412h652v-174h-652v-426h799v-174h-995zM319 1489l252 336h170l252 -336h-168l-168 211l-170 -211h-168z" />
<glyph unicode="&#xcb;" horiz-adv-x="1255" d="M160 0v1360h995v-174h-799v-412h652v-174h-652v-426h799v-174h-995zM348 1645q0 47 30.5 76.5t76.5 29.5q49 0 79.5 -29.5t30.5 -76.5q0 -48 -30.5 -78.5t-79.5 -30.5q-46 0 -76.5 31t-30.5 78zM750 1645q0 47 30.5 76.5t79.5 29.5q46 0 76.5 -29.5t30.5 -76.5t-30.5 -78 t-76.5 -31q-49 0 -79.5 30.5t-30.5 78.5z" />
<glyph unicode="&#xcc;" horiz-adv-x="516" d="M-74 1825h197l233 -336h-168zM160 0v1360h196v-1360h-196z" />
<glyph unicode="&#xcd;" horiz-adv-x="516" d="M158 1489l233 336h197l-262 -336h-168zM160 0v1360h196v-1360h-196z" />
<glyph unicode="&#xce;" horiz-adv-x="516" d="M-80 1489l252 336h170l252 -336h-168l-168 211l-170 -211h-168zM160 0v1360h196v-1360h-196z" />
<glyph unicode="&#xcf;" horiz-adv-x="516" d="M-51 1645q0 47 30 76.5t76 29.5q49 0 80 -29.5t31 -76.5q0 -48 -31 -78.5t-80 -30.5q-46 0 -76 31t-30 78zM160 0v1360h196v-1360h-196zM350 1645q0 47 31 76.5t80 29.5q46 0 76 -29.5t30 -76.5t-30 -78t-76 -31q-49 0 -80 30.5t-31 78.5z" />
<glyph unicode="&#xd0;" horiz-adv-x="1515" d="M41 606v166h149v588h531q339 0 530 -180t191 -498q0 -321 -190.5 -501.5t-530.5 -180.5h-531v606h-149zM387 174h324q252 0 392 133.5t140 374.5q0 238 -140 371t-392 133h-324v-414h383v-166h-383v-432z" />
<glyph unicode="&#xd1;" horiz-adv-x="1513" d="M160 0v1360h274l727 -1096h4v1096h189v-1360h-238l-764 1161h-4v-1161h-188zM434 1509v148q26 51 75 80.5t107 29.5q40 0 74 -11t86 -46q71 -49 129 -49q101 0 164 121h8v-148q-25 -52 -73.5 -82t-108.5 -30q-40 0 -74.5 11.5t-85.5 45.5q-71 49 -129 49 q-100 0 -164 -119h-8z" />
<glyph unicode="&#xd2;" horiz-adv-x="1564" d="M74 680q0 152 52.5 282t145 222t224.5 144t286 52q205 0 366.5 -89t252 -249t90.5 -362t-90.5 -362t-252 -249t-366.5 -89q-154 0 -286 52t-224.5 144t-145 222t-52.5 282zM272 680q0 -232 142 -379t368 -147t368 147t142 379t-142 379t-368 147t-368 -147t-142 -379z M451 1825h196l234 -336h-168z" />
<glyph unicode="&#xd3;" horiz-adv-x="1564" d="M74 680q0 152 52.5 282t145 222t224.5 144t286 52q205 0 366.5 -89t252 -249t90.5 -362t-90.5 -362t-252 -249t-366.5 -89q-154 0 -286 52t-224.5 144t-145 222t-52.5 282zM272 680q0 -232 142 -379t368 -147t368 147t142 379t-142 379t-368 147t-368 -147t-142 -379z M682 1489l233 336h197l-262 -336h-168z" />
<glyph unicode="&#xd4;" horiz-adv-x="1564" d="M74 680q0 152 52.5 282t145 222t224.5 144t286 52q205 0 366.5 -89t252 -249t90.5 -362t-90.5 -362t-252 -249t-366.5 -89q-154 0 -286 52t-224.5 144t-145 222t-52.5 282zM272 680q0 -232 142 -379t368 -147t368 147t142 379t-142 379t-368 147t-368 -147t-142 -379z M444 1489l252 336h170l252 -336h-168l-168 211l-170 -211h-168z" />
<glyph unicode="&#xd5;" horiz-adv-x="1564" d="M74 680q0 152 52.5 282t145 222t224.5 144t286 52q205 0 366.5 -89t252 -249t90.5 -362t-90.5 -362t-252 -249t-366.5 -89q-154 0 -286 52t-224.5 144t-145 222t-52.5 282zM272 680q0 -232 142 -379t368 -147t368 147t142 379t-142 379t-368 147t-368 -147t-142 -379z M461 1509v148q26 51 75 80.5t107 29.5q40 0 74 -11t86 -46q71 -49 129 -49q101 0 164 121h8v-148q-25 -52 -73.5 -82t-108.5 -30q-40 0 -74.5 11.5t-85.5 45.5q-71 49 -129 49q-100 0 -164 -119h-8z" />
<glyph unicode="&#xd6;" horiz-adv-x="1564" d="M74 680q0 152 52.5 282t145 222t224.5 144t286 52q205 0 366.5 -89t252 -249t90.5 -362t-90.5 -362t-252 -249t-366.5 -89q-154 0 -286 52t-224.5 144t-145 222t-52.5 282zM272 680q0 -232 142 -379t368 -147t368 147t142 379t-142 379t-368 147t-368 -147t-142 -379z M473 1645q0 47 30.5 76.5t76.5 29.5q49 0 79.5 -29.5t30.5 -76.5q0 -48 -30.5 -78.5t-79.5 -30.5q-46 0 -76.5 31t-30.5 78zM874 1645q0 47 31 76.5t80 29.5q46 0 76.5 -29.5t30.5 -76.5t-30.5 -78t-76.5 -31q-49 0 -80 30.5t-31 78.5z" />
<glyph unicode="&#xd7;" d="M139 199l416 415l-416 416l111 111l416 -416l415 416l111 -111l-416 -416l416 -415l-111 -111l-415 416l-416 -416z" />
<glyph unicode="&#xd8;" horiz-adv-x="1564" d="M74 0l176 201q-176 188 -176 479q0 152 52.5 282t145 222t224.5 144t286 52q230 0 406 -112l82 92h221l-176 -201q176 -192 176 -479q0 -202 -90.5 -362t-252 -249t-366.5 -89q-233 0 -407 114l-82 -94h-219zM272 680q0 -197 105 -336l688 784q-124 78 -283 78 q-226 0 -368 -147t-142 -379zM498 233q124 -79 284 -79q226 0 368 147t142 379q0 197 -104 336z" />
<glyph unicode="&#xd9;" horiz-adv-x="1419" d="M127 573v787h197v-774q0 -211 99.5 -321.5t289.5 -110.5q191 0 291 110.5t100 321.5v774h188v-787q0 -292 -148 -442.5t-435 -150.5q-286 0 -434 150.5t-148 442.5zM379 1825h196l234 -336h-168z" />
<glyph unicode="&#xda;" horiz-adv-x="1419" d="M127 573v787h197v-774q0 -211 99.5 -321.5t289.5 -110.5q191 0 291 110.5t100 321.5v774h188v-787q0 -292 -148 -442.5t-435 -150.5q-286 0 -434 150.5t-148 442.5zM610 1489l234 336h196l-262 -336h-168z" />
<glyph unicode="&#xdb;" horiz-adv-x="1419" d="M127 573v787h197v-774q0 -211 99.5 -321.5t289.5 -110.5q191 0 291 110.5t100 321.5v774h188v-787q0 -292 -148 -442.5t-435 -150.5q-286 0 -434 150.5t-148 442.5zM373 1489l252 336h170l252 -336h-168l-168 211l-170 -211h-168z" />
<glyph unicode="&#xdc;" horiz-adv-x="1419" d="M127 573v787h197v-774q0 -211 99.5 -321.5t289.5 -110.5q191 0 291 110.5t100 321.5v774h188v-787q0 -292 -148 -442.5t-435 -150.5q-286 0 -434 150.5t-148 442.5zM401 1645q0 47 30.5 76.5t76.5 29.5q49 0 79.5 -29.5t30.5 -76.5q0 -48 -30.5 -78.5t-79.5 -30.5 q-46 0 -76.5 31t-30.5 78zM803 1645q0 47 30.5 76.5t79.5 29.5q46 0 76.5 -29.5t30.5 -76.5t-30.5 -78t-76.5 -31q-49 0 -79.5 30.5t-30.5 78.5z" />
<glyph unicode="&#xdd;" horiz-adv-x="1380" d="M16 1360h240l438 -602l439 602h231l-573 -766v-594h-197v592zM590 1489l233 336h197l-262 -336h-168z" />
<glyph unicode="&#xde;" horiz-adv-x="1294" d="M160 0v1360h196v-223h392q240 0 362.5 -108t122.5 -320t-122.5 -320t-362.5 -108h-392v-281h-196zM356 455h383q295 0 295 254t-295 254h-383v-508z" />
<glyph unicode="&#xdf;" horiz-adv-x="1132" d="M135 0v1055q0 399 416 399q171 0 271 -86t100 -235q0 -91 -32 -157.5t-110 -129.5q-45 -36 -60 -59t-15 -52q0 -42 29.5 -68.5t109.5 -50.5q135 -41 192.5 -116t57.5 -203q0 -154 -95 -235.5t-274 -81.5q-191 0 -309 81v185h8q50 -51 127 -81t160 -30q209 0 209 160 q0 63 -36 99.5t-132 68.5q-122 41 -171 100.5t-49 163.5q0 67 27 118t94 107q55 47 77 84t22 82q0 88 -51.5 134t-149.5 46q-126 0 -184 -61.5t-58 -194.5v-1042h-174z" />
<glyph unicode="&#xe0;" horiz-adv-x="1216" d="M74 479q0 218 135 359t344 141q125 0 220.5 -45.5t150.5 -128.5h4l6 153h147v-958h-147l-6 152h-4q-55 -81 -151 -126.5t-220 -45.5q-209 0 -344 140.5t-135 358.5zM246 1440h196l234 -336h-168zM250 479q0 -152 92 -248t240 -96q146 0 238.5 96t92.5 248t-92.5 248 t-238.5 96q-148 0 -240 -96t-92 -248z" />
<glyph unicode="&#xe1;" horiz-adv-x="1216" d="M74 479q0 218 135 359t344 141q125 0 220.5 -45.5t150.5 -128.5h4l6 153h147v-958h-147l-6 152h-4q-55 -81 -151 -126.5t-220 -45.5q-209 0 -344 140.5t-135 358.5zM250 479q0 -152 92 -248t240 -96q146 0 238.5 96t92.5 248t-92.5 248t-238.5 96q-148 0 -240 -96 t-92 -248zM477 1104l234 336h196l-262 -336h-168z" />
<glyph unicode="&#xe2;" horiz-adv-x="1216" d="M74 479q0 218 135 359t344 141q125 0 220.5 -45.5t150.5 -128.5h4l6 153h147v-958h-147l-6 152h-4q-55 -81 -151 -126.5t-220 -45.5q-209 0 -344 140.5t-135 358.5zM240 1104l252 336h170l251 -336h-168l-167 211l-170 -211h-168zM250 479q0 -152 92 -248t240 -96 q146 0 238.5 96t92.5 248t-92.5 248t-238.5 96q-148 0 -240 -96t-92 -248z" />
<glyph unicode="&#xe3;" horiz-adv-x="1216" d="M74 479q0 218 135 359t344 141q125 0 220.5 -45.5t150.5 -128.5h4l6 153h147v-958h-147l-6 152h-4q-55 -81 -151 -126.5t-220 -45.5q-209 0 -344 140.5t-135 358.5zM250 479q0 -152 92 -248t240 -96q146 0 238.5 96t92.5 248t-92.5 248t-238.5 96q-148 0 -240 -96 t-92 -248zM256 1124v148q26 51 75 80.5t107 29.5q40 0 74 -11t86 -46q71 -49 129 -49q101 0 164 121h8v-148q-25 -52 -73.5 -82t-108.5 -30q-40 0 -74.5 11.5t-85.5 45.5q-71 49 -129 49q-100 0 -164 -119h-8z" />
<glyph unicode="&#xe4;" horiz-adv-x="1216" d="M74 479q0 218 135 359t344 141q125 0 220.5 -45.5t150.5 -128.5h4l6 153h147v-958h-147l-6 152h-4q-55 -81 -151 -126.5t-220 -45.5q-209 0 -344 140.5t-135 358.5zM250 479q0 -152 92 -248t240 -96q146 0 238.5 96t92.5 248t-92.5 248t-238.5 96q-148 0 -240 -96 t-92 -248zM268 1260q0 47 30.5 76.5t76.5 29.5q49 0 79.5 -29.5t30.5 -76.5q0 -48 -30.5 -78.5t-79.5 -30.5q-46 0 -76.5 31t-30.5 78zM670 1260q0 47 30.5 76.5t79.5 29.5q46 0 76.5 -29.5t30.5 -76.5t-30.5 -78t-76.5 -31q-49 0 -79.5 30.5t-30.5 78.5z" />
<glyph unicode="&#xe5;" horiz-adv-x="1216" d="M74 479q0 218 135 359t344 141q125 0 220.5 -45.5t150.5 -128.5h4l6 153h147v-958h-147l-6 152h-4q-55 -81 -151 -126.5t-220 -45.5q-209 0 -344 140.5t-135 358.5zM250 479q0 -152 92 -248t240 -96q146 0 238.5 96t92.5 248t-92.5 248t-238.5 96q-148 0 -240 -96 t-92 -248zM381 1274q0 85 56 140.5t141 55.5t140.5 -55.5t55.5 -140.5t-55.5 -141t-140.5 -56t-141 56t-56 141zM489 1274q0 -38 25.5 -63t63.5 -25t63 25t25 63t-25 63t-63 25t-63.5 -25t-25.5 -63z" />
<glyph unicode="&#xe6;" horiz-adv-x="1970" d="M74 479q0 218 135 359t344 141q124 0 219 -44.5t150 -125.5h4l4 149h133l4 -149h4q55 81 150.5 125.5t222.5 44.5q213 0 333.5 -123t120.5 -338v-96h-817q19 -134 123 -210.5t269 -76.5q219 0 356 131h8v-176q-131 -110 -346 -110q-295 0 -420 170h-4l-4 -150h-133 l-4 150h-4q-55 -81 -150 -125.5t-219 -44.5q-209 0 -344 140.5t-135 358.5zM250 479q0 -152 92 -248t240 -96q146 0 238.5 96t92.5 248t-92.5 248t-238.5 96q-148 0 -240 -96t-92 -248zM1081 567h656q-19 118 -105 187t-219 69q-129 0 -218 -69.5t-114 -186.5z" />
<glyph unicode="&#xe7;" horiz-adv-x="999" d="M74 479q0 221 142 360.5t374 139.5q203 0 313 -94v-191h-8q-108 129 -289 129q-163 0 -259.5 -94.5t-96.5 -249.5q0 -154 96.5 -249t259.5 -95q184 0 289 129h8v-192q-103 -86 -285 -92l-47 -93v-4h9q91 0 137.5 -38t46.5 -105q0 -150 -223 -150q-105 0 -172 31v121h8 q66 -41 160 -41q48 0 71 15.5t23 39.5q0 58 -99 58q-38 0 -94 -17v27l84 160q-203 22 -325.5 157.5t-122.5 337.5z" />
<glyph unicode="&#xe8;" horiz-adv-x="1130" d="M74 479q0 220 139.5 360t359.5 140q221 0 353.5 -126t132.5 -335v-96h-809q19 -134 121 -210.5t264 -76.5q217 0 354 131h8v-176q-135 -110 -366 -110q-253 0 -405 136.5t-152 362.5zM244 1440h196l234 -336h-168zM250 567h647q-19 117 -105.5 186.5t-216.5 69.5 q-123 0 -211.5 -70t-113.5 -186z" />
<glyph unicode="&#xe9;" horiz-adv-x="1130" d="M74 479q0 220 139.5 360t359.5 140q221 0 353.5 -126t132.5 -335v-96h-809q19 -134 121 -210.5t264 -76.5q217 0 354 131h8v-176q-135 -110 -366 -110q-253 0 -405 136.5t-152 362.5zM250 567h647q-19 117 -105.5 186.5t-216.5 69.5q-123 0 -211.5 -70t-113.5 -186z M475 1104l234 336h196l-262 -336h-168z" />
<glyph unicode="&#xea;" horiz-adv-x="1130" d="M74 479q0 220 139.5 360t359.5 140q221 0 353.5 -126t132.5 -335v-96h-809q19 -134 121 -210.5t264 -76.5q217 0 354 131h8v-176q-135 -110 -366 -110q-253 0 -405 136.5t-152 362.5zM238 1104l251 336h170l252 -336h-168l-168 211l-169 -211h-168zM250 567h647 q-19 117 -105.5 186.5t-216.5 69.5q-123 0 -211.5 -70t-113.5 -186z" />
<glyph unicode="&#xeb;" horiz-adv-x="1130" d="M74 479q0 220 139.5 360t359.5 140q221 0 353.5 -126t132.5 -335v-96h-809q19 -134 121 -210.5t264 -76.5q217 0 354 131h8v-176q-135 -110 -366 -110q-253 0 -405 136.5t-152 362.5zM250 567h647q-19 117 -105.5 186.5t-216.5 69.5q-123 0 -211.5 -70t-113.5 -186z M266 1260q0 47 30.5 76.5t76.5 29.5q49 0 79.5 -29.5t30.5 -76.5q0 -48 -30.5 -78.5t-79.5 -30.5q-46 0 -76.5 31t-30.5 78zM668 1260q0 47 30.5 76.5t79.5 29.5q46 0 76.5 -29.5t30.5 -76.5t-30.5 -78t-76.5 -31q-49 0 -79.5 30.5t-30.5 78.5z" />
<glyph unicode="&#xec;" horiz-adv-x="442" d="M-111 1440h197l233 -336h-167zM135 0v958h174v-958h-174z" />
<glyph unicode="&#xed;" horiz-adv-x="442" d="M121 1104l233 336h197l-262 -336h-168zM135 0v958h174v-958h-174z" />
<glyph unicode="&#xee;" horiz-adv-x="442" d="M-117 1104l252 336h170l252 -336h-168l-168 211l-170 -211h-168zM135 0v958h174v-958h-174z" />
<glyph unicode="&#xef;" horiz-adv-x="442" d="M-88 1260q0 47 30 76.5t76 29.5q49 0 80 -29.5t31 -76.5q0 -48 -31 -78.5t-80 -30.5q-46 0 -76 31t-30 78zM135 0v958h174v-958h-174zM313 1260q0 47 31 76.5t80 29.5q46 0 76 -29.5t30 -76.5t-30 -78t-76 -31q-49 0 -80 30.5t-31 78.5z" />
<glyph unicode="&#xf0;" horiz-adv-x="1163" d="M74 479q0 218 135 359t344 141q173 0 281 -88h4q-64 142 -170 250l-334 -107v135l223 70q-134 110 -317 186v9h295q37 -18 73.5 -43.5t58.5 -43.5t62 -53l215 68v-133l-108 -35q124 -136 189 -312.5t65 -379.5q0 -235 -142 -378.5t-366 -143.5q-223 0 -365.5 139.5 t-142.5 359.5zM250 479q0 -152 92 -248t240 -96q146 0 238.5 96t92.5 248t-92.5 248t-238.5 96q-148 0 -240 -96t-92 -248z" />
<glyph unicode="&#xf1;" horiz-adv-x="1138" d="M135 0v958h148l4 -151h4q104 172 344 172q183 0 288 -112.5t105 -309.5v-557h-174v537q0 135 -69 210.5t-191 75.5q-134 0 -209.5 -86.5t-75.5 -238.5v-498h-174zM248 1124v148q26 51 75 80.5t107 29.5q40 0 74 -11t86 -46q71 -49 129 -49q101 0 164 121h8v-148 q-25 -52 -73.5 -82t-108.5 -30q-40 0 -74.5 11.5t-85.5 45.5q-71 49 -129 49q-100 0 -164 -119h-8z" />
<glyph unicode="&#xf2;" horiz-adv-x="1163" d="M74 479q0 220 142.5 360t365.5 140t365.5 -140t142.5 -360t-142.5 -359.5t-365.5 -139.5t-365.5 139.5t-142.5 359.5zM250 479q0 -152 92 -248t240 -96q146 0 238.5 96t92.5 248t-92.5 248t-238.5 96q-148 0 -240 -96t-92 -248zM250 1440h196l234 -336h-168z" />
<glyph unicode="&#xf3;" horiz-adv-x="1163" d="M74 479q0 220 142.5 360t365.5 140t365.5 -140t142.5 -360t-142.5 -359.5t-365.5 -139.5t-365.5 139.5t-142.5 359.5zM250 479q0 -152 92 -248t240 -96q146 0 238.5 96t92.5 248t-92.5 248t-238.5 96q-148 0 -240 -96t-92 -248zM481 1104l234 336h196l-262 -336h-168z " />
<glyph unicode="&#xf4;" horiz-adv-x="1163" d="M74 479q0 220 142.5 360t365.5 140t365.5 -140t142.5 -360t-142.5 -359.5t-365.5 -139.5t-365.5 139.5t-142.5 359.5zM244 1104l252 336h170l252 -336h-168l-168 211l-170 -211h-168zM250 479q0 -152 92 -248t240 -96q146 0 238.5 96t92.5 248t-92.5 248t-238.5 96 q-148 0 -240 -96t-92 -248z" />
<glyph unicode="&#xf5;" horiz-adv-x="1163" d="M74 479q0 220 142.5 360t365.5 140t365.5 -140t142.5 -360t-142.5 -359.5t-365.5 -139.5t-365.5 139.5t-142.5 359.5zM250 479q0 -152 92 -248t240 -96q146 0 238.5 96t92.5 248t-92.5 248t-238.5 96q-148 0 -240 -96t-92 -248zM260 1124v148q26 51 75 80.5t107 29.5 q40 0 74 -11t86 -46q71 -49 129 -49q101 0 164 121h8v-148q-25 -52 -73.5 -82t-108.5 -30q-40 0 -74.5 11.5t-85.5 45.5q-71 49 -129 49q-100 0 -164 -119h-8z" />
<glyph unicode="&#xf6;" horiz-adv-x="1163" d="M74 479q0 220 142.5 360t365.5 140t365.5 -140t142.5 -360t-142.5 -359.5t-365.5 -139.5t-365.5 139.5t-142.5 359.5zM250 479q0 -152 92 -248t240 -96q146 0 238.5 96t92.5 248t-92.5 248t-238.5 96q-148 0 -240 -96t-92 -248zM272 1260q0 47 30.5 76.5t76.5 29.5 q49 0 79.5 -29.5t30.5 -76.5q0 -48 -30.5 -78.5t-79.5 -30.5q-46 0 -76.5 31t-30.5 78zM674 1260q0 47 30.5 76.5t79.5 29.5q46 0 76.5 -29.5t30.5 -76.5t-30.5 -78t-76.5 -31q-49 0 -79.5 30.5t-30.5 78.5z" />
<glyph unicode="&#xf7;" d="M88 537v155h1155v-155h-1155zM561 135q0 46 29.5 75.5t75.5 29.5t75 -29.5t29 -75.5t-29 -76t-75 -30t-75.5 30t-29.5 76zM561 1094q0 46 29.5 76t75.5 30t75 -30t29 -76t-29 -75.5t-75 -29.5t-75.5 29.5t-29.5 75.5z" />
<glyph unicode="&#xf8;" horiz-adv-x="1163" d="M74 0l121 141q-121 137 -121 338q0 220 142.5 360t365.5 140q154 0 272 -70l43 49h193l-121 -141q121 -137 121 -338q0 -220 -142.5 -359.5t-365.5 -139.5q-155 0 -275 69l-43 -49h-190zM250 479q0 -121 59 -207l439 510q-74 41 -166 41q-148 0 -240 -96t-92 -248z M416 176q71 -41 166 -41q146 0 238.5 96t92.5 248q0 121 -59 207z" />
<glyph unicode="&#xf9;" horiz-adv-x="1138" d="M111 401v557h174v-538q0 -135 69 -210t191 -75q133 0 208.5 87t75.5 239v497h175v-958h-148l-4 152h-4q-104 -172 -344 -172q-183 0 -288 111.5t-105 309.5zM225 1440h197l233 -336h-168z" />
<glyph unicode="&#xfa;" horiz-adv-x="1138" d="M111 401v557h174v-538q0 -135 69 -210t191 -75q133 0 208.5 87t75.5 239v497h175v-958h-148l-4 152h-4q-104 -172 -344 -172q-183 0 -288 111.5t-105 309.5zM457 1104l233 336h197l-262 -336h-168z" />
<glyph unicode="&#xfb;" horiz-adv-x="1138" d="M111 401v557h174v-538q0 -135 69 -210t191 -75q133 0 208.5 87t75.5 239v497h175v-958h-148l-4 152h-4q-104 -172 -344 -172q-183 0 -288 111.5t-105 309.5zM219 1104l252 336h170l252 -336h-168l-168 211l-170 -211h-168z" />
<glyph unicode="&#xfc;" horiz-adv-x="1138" d="M111 401v557h174v-538q0 -135 69 -210t191 -75q133 0 208.5 87t75.5 239v497h175v-958h-148l-4 152h-4q-104 -172 -344 -172q-183 0 -288 111.5t-105 309.5zM248 1260q0 47 30 76.5t76 29.5q49 0 80 -29.5t31 -76.5q0 -48 -31 -78.5t-80 -30.5q-46 0 -76 31t-30 78z M649 1260q0 47 31 76.5t80 29.5q46 0 76 -29.5t30 -76.5t-30 -78t-76 -31q-49 0 -80 30.5t-31 78.5z" />
<glyph unicode="&#xfd;" horiz-adv-x="1017" d="M16 958h189l305 -741h4l307 741h180l-598 -1347h-180l195 424zM410 1104l233 336h197l-262 -336h-168z" />
<glyph unicode="&#xfe;" horiz-adv-x="1216" d="M135 -389v1823h174v-598h4q121 143 349 143q209 0 345 -141t136 -359t-135.5 -358.5t-345.5 -140.5q-228 0 -349 143h-4v-512h-174zM303 479q0 -152 92 -248t240 -96q146 0 239 96t93 248t-93 248t-239 96q-148 0 -240 -96t-92 -248z" />
<glyph unicode="&#xff;" horiz-adv-x="1017" d="M16 958h189l305 -741h4l307 741h180l-598 -1347h-180l195 424zM201 1260q0 47 30 76.5t76 29.5q49 0 80 -29.5t31 -76.5q0 -48 -31 -78.5t-80 -30.5q-46 0 -76 31t-30 78zM602 1260q0 47 31 76.5t80 29.5q46 0 76 -29.5t30 -76.5t-30 -78t-76 -31q-49 0 -80 30.5 t-31 78.5z" />
<glyph unicode="&#x152;" horiz-adv-x="2224" d="M74 682q0 318 191 498t530 180h1329v-174h-799v-412h651v-174h-651v-426h799v-174h-1329q-340 0 -530.5 180.5t-190.5 501.5zM272 682q0 -242 140 -375t393 -133h323v1012h-323q-253 0 -393 -133t-140 -371z" />
<glyph unicode="&#x153;" horiz-adv-x="1970" d="M74 479q0 220 137.5 360t355.5 140q149 0 260 -62t170 -176h4q59 113 170 175.5t259 62.5q219 0 342.5 -123t123.5 -338v-96h-806q19 -134 122 -210.5t265 -76.5q215 0 352 131h8v-176q-134 -110 -360 -110q-171 0 -292.5 60.5t-183.5 174.5h-4q-59 -112 -170 -173.5 t-260 -61.5q-218 0 -355.5 139t-137.5 360zM250 479q0 -152 92 -248t240 -96q146 0 238.5 96t92.5 248t-92.5 248t-238.5 96q-148 0 -240 -96t-92 -248zM1090 567h645q-19 118 -103.5 187t-214.5 69q-123 0 -212.5 -70t-114.5 -186z" />
<glyph unicode="&#x178;" horiz-adv-x="1380" d="M16 1360h240l438 -602l439 602h231l-573 -766v-594h-197v592zM381 1645q0 47 30 76.5t76 29.5q49 0 80 -29.5t31 -76.5q0 -48 -31 -78.5t-80 -30.5q-46 0 -76 31t-30 78zM782 1645q0 47 31 76.5t80 29.5q46 0 76 -29.5t30 -76.5t-30 -78t-76 -31q-49 0 -80 30.5t-31 78.5 z" />
<glyph unicode="&#x2c6;" horiz-adv-x="1024" d="M176 1104l252 336h170l252 -336h-168l-168 211l-170 -211h-168z" />
<glyph unicode="&#x2dc;" horiz-adv-x="1024" d="M190 1124v148q26 51 75 80.5t108 29.5q40 0 73.5 -11t85.5 -46q71 -49 130 -49q100 0 163 121h9v-148q-25 -52 -74 -82t-109 -30q-40 0 -74 11t-85 46q-71 49 -130 49q-99 0 -163 -119h-9z" />
<glyph unicode="&#x2000;" horiz-adv-x="927" />
<glyph unicode="&#x2001;" horiz-adv-x="1855" />
<glyph unicode="&#x2002;" horiz-adv-x="927" />
<glyph unicode="&#x2003;" horiz-adv-x="1855" />
<glyph unicode="&#x2004;" horiz-adv-x="618" />
<glyph unicode="&#x2005;" horiz-adv-x="463" />
<glyph unicode="&#x2006;" horiz-adv-x="309" />
<glyph unicode="&#x2007;" horiz-adv-x="309" />
<glyph unicode="&#x2008;" horiz-adv-x="231" />
<glyph unicode="&#x2009;" horiz-adv-x="371" />
<glyph unicode="&#x200a;" horiz-adv-x="103" />
<glyph unicode="&#x2010;" horiz-adv-x="757" d="M94 471v176h570v-176h-570z" />
<glyph unicode="&#x2011;" horiz-adv-x="757" d="M94 471v176h570v-176h-570z" />
<glyph unicode="&#x2012;" horiz-adv-x="757" d="M94 471v176h570v-176h-570z" />
<glyph unicode="&#x2013;" horiz-adv-x="1024" d="M102 481v156h820v-156h-820z" />
<glyph unicode="&#x2014;" horiz-adv-x="2048" d="M102 481v156h1844v-156h-1844z" />
<glyph unicode="&#x2018;" horiz-adv-x="514" d="M90 905l199 455h141l-160 -455h-180z" />
<glyph unicode="&#x2019;" horiz-adv-x="514" d="M84 905l160 455h180l-199 -455h-141z" />
<glyph unicode="&#x201a;" horiz-adv-x="514" d="M33 -258l160 455h180l-199 -455h-141z" />
<glyph unicode="&#x201c;" horiz-adv-x="884" d="M90 905l199 455h141l-160 -455h-180zM461 905l198 455h142l-160 -455h-180z" />
<glyph unicode="&#x201d;" horiz-adv-x="884" d="M84 905l160 455h180l-199 -455h-141zM455 905l159 455h181l-199 -455h-141z" />
<glyph unicode="&#x201e;" horiz-adv-x="884" d="M33 -258l160 455h180l-199 -455h-141zM403 -258l160 455h180l-198 -455h-142z" />
<glyph unicode="&#x2022;" horiz-adv-x="1024" d="M217 559q0 127 83.5 210t211.5 83t211.5 -83t83.5 -210t-83.5 -211t-211.5 -84t-211.5 84t-83.5 211z" />
<glyph unicode="&#x2026;" horiz-adv-x="2048" d="M264 98q0 51 34 85t85 34t84 -34t33 -85t-33 -84.5t-84 -33.5t-85 33.5t-34 84.5zM905 98q0 51 34 85t85 34t84 -34t33 -85t-33 -84.5t-84 -33.5t-85 33.5t-34 84.5zM1546 98q0 51 34 85t85 34t84 -34t33 -85t-33 -84.5t-84 -33.5t-85 33.5t-34 84.5z" />
<glyph unicode="&#x202f;" horiz-adv-x="371" />
<glyph unicode="&#x2039;" horiz-adv-x="587" d="M63 473v12l420 430v-184l-254 -252l254 -252v-186z" />
<glyph unicode="&#x203a;" horiz-adv-x="587" d="M104 43v184l254 252l-254 252v187l420 -433v-12z" />
<glyph unicode="&#x205f;" horiz-adv-x="463" />
<glyph unicode="&#x20ac;" d="M111 461v133h139q-4 58 -4 86q0 34 4 96h-139v133h159q54 223 207.5 347t382.5 124q106 0 197 -25t149 -71v-186h-10q-119 119 -319 119q-156 0 -263 -80t-153 -228h602v-133h-629q-4 -62 -4 -96q0 -32 4 -86h629v-133h-604q43 -153 151 -235.5t267 -82.5q200 0 319 119 h10v-186q-58 -46 -149 -71t-197 -25q-231 0 -386 127t-206 354h-157z" />
<glyph unicode="&#x2122;" horiz-adv-x="1572" d="M39 1260v100h526v-100h-207v-590h-114v590h-205zM676 670v690h174l213 -524h4l213 524h178v-690h-115v549h-4l-223 -551h-106l-222 544h-4v-542h-108z" />
<glyph unicode="&#x25fc;" horiz-adv-x="962" d="M0 0v963h963v-963h-963z" />
</font>
</defs>
</svg>
