<?xml version="1.0" standalone="no"?>
<!DOCTYPE svg PUBLIC "-//W3C//DTD SVG 1.1//EN" "http://www.w3.org/Graphics/SVG/1.1/DTD/svg11.dtd" >
<svg xmlns="http://www.w3.org/2000/svg" xmlns:xlink="http://www.w3.org/1999/xlink" version="1.1">
<metadata></metadata>
<defs>
<font id="graphiesemibold" horiz-adv-x="1331" >
<font-face units-per-em="2048" ascent="1536" descent="-512" />
<missing-glyph horiz-adv-x="450" />
<glyph unicode="&#xfb01;" horiz-adv-x="1183" d="M25 772v189h170v137q0 170 86.5 263t244.5 93q117 0 185 -35v-202h-11q-61 43 -141 43q-69 0 -108 -44.5t-39 -125.5v-129h643v-961h-217v772h-426v-772h-217v772h-170zM809 1260q0 62 38 100.5t99 38.5q63 0 101 -38.5t38 -100.5t-38 -100t-101 -38q-61 0 -99 38 t-38 100z" />
<glyph unicode="&#xfb03;" horiz-adv-x="1820" d="M25 772v189h170v116q0 171 88.5 264t253.5 93q126 0 194 -35v-203h-10q-61 43 -152 43q-76 0 -116.5 -44t-40.5 -126v-108h419v137q0 170 87 263t245 93q117 0 185 -35v-202h-11q-61 43 -141 43q-69 0 -108 -44.5t-39 -125.5v-129h643v-961h-217v772h-426v-772h-218v772 h-419v-772h-217v772h-170zM1446 1260q0 62 38 100.5t99 38.5q63 0 101 -38.5t38 -100.5t-38 -100t-101 -38q-61 0 -99 38t-38 100z" />
<glyph horiz-adv-x="0" />
<glyph horiz-adv-x="682" />
<glyph unicode=" "  horiz-adv-x="450" />
<glyph unicode="&#x09;" horiz-adv-x="450" />
<glyph unicode="&#xa0;" horiz-adv-x="450" />
<glyph unicode="!" horiz-adv-x="536" d="M127 121q0 60 40.5 100.5t100.5 40.5q61 0 101.5 -40.5t40.5 -100.5t-40.5 -100.5t-101.5 -40.5q-60 0 -100.5 40.5t-40.5 100.5zM139 1360h258l-28 -952h-201z" />
<glyph unicode="&#x22;" horiz-adv-x="872" d="M139 1360h209l-20 -604h-168zM522 1360h209l-20 -604h-168z" />
<glyph unicode="#" d="M53 375l21 151h260l47 328h-260l22 152h260l50 354h168l-50 -354h281l49 354h166l-49 -354h260l-23 -152h-260l-47 -328h262l-22 -151h-260l-54 -375h-165l53 375h-281l-53 -375h-168l53 375h-260zM502 526h280l47 328h-280z" />
<glyph unicode="$" d="M176 174v238h12q152 -137 404 -152v324q-218 17 -316 98.5t-98 239.5q0 161 109 260t305 118v162h151v-159q226 -9 349 -97v-237h-13q-104 113 -336 131v-314q219 -19 317.5 -103.5t100.5 -250.5q0 -163 -108 -259.5t-310 -113.5v-182h-151v180q-269 12 -416 117z M395 936q0 -58 45.5 -88.5t151.5 -44.5v295q-95 -12 -146 -54t-51 -108zM743 262q95 12 148 54.5t53 107.5q0 61 -47 94.5t-154 48.5v-305z" />
<glyph unicode="%" horiz-adv-x="1554" d="M72 1042q0 154 81.5 246t225.5 92t225.5 -92t81.5 -246q0 -153 -81.5 -244t-225.5 -91t-225.5 91t-81.5 244zM229 1042q0 -92 40 -143t110 -51q69 0 109 51t40 143q0 93 -40 145t-109 52q-70 0 -110 -52t-40 -145zM252 0l870 1360h181l-871 -1360h-180zM868 315 q0 154 82 246t226 92t225.5 -92t81.5 -246q0 -153 -81.5 -244t-225.5 -91t-226 91t-82 244zM1026 315q0 -92 40 -143t110 -51q69 0 109 51t40 143q0 93 -40 145t-109 52q-70 0 -110 -52t-40 -145z" />
<glyph unicode="&#x26;" horiz-adv-x="1312" d="M86 352q0 125 60 217.5t186 161.5q-77 85 -111.5 158t-34.5 151q0 157 104 248.5t281 91.5q179 0 282 -84.5t103 -232.5q0 -123 -73 -214t-234 -165l283 -309q67 110 67 270q0 24 -4 74h209q4 -46 4 -68q0 -253 -143 -422l209 -229h-285l-80 88q-164 -108 -377 -108 q-209 0 -327.5 98.5t-118.5 273.5zM307 375q0 -97 62.5 -150t177.5 -53q143 0 235 57l-323 361q-80 -44 -116 -95t-36 -120zM403 1040q0 -49 23 -93.5t80 -106.5l16 -19q132 58 185 109.5t53 118.5q0 60 -49 98.5t-125 38.5q-82 0 -132.5 -40.5t-50.5 -105.5z" />
<glyph unicode="'" horiz-adv-x="489" d="M139 1360h209l-20 -604h-168z" />
<glyph unicode="(" horiz-adv-x="792" d="M168 575q0 219 78.5 421t228.5 364h223q-301 -337 -301 -785q0 -447 301 -784h-223q-150 162 -228.5 363.5t-78.5 420.5z" />
<glyph unicode=")" horiz-adv-x="792" d="M94 -209q301 337 301 784q0 448 -301 785h223q150 -162 229 -364t79 -421t-79 -420.5t-229 -363.5h-223z" />
<glyph unicode="*" horiz-adv-x="944" d="M63 1069l62 180l291 -137l-41 322h194l-41 -322l291 137l62 -180l-320 -61l223 -238l-157 -115l-154 285l-156 -285l-157 115l223 238z" />
<glyph unicode="+" d="M86 518v193h483v483h193v-483h483v-193h-483v-483h-193v483h-483z" />
<glyph unicode="," horiz-adv-x="536" d="M10 -240l174 482h224l-220 -482h-178z" />
<glyph unicode="-" horiz-adv-x="757" d="M90 451v219h578v-219h-578z" />
<glyph unicode="." horiz-adv-x="536" d="M127 121q0 60 40.5 100.5t100.5 40.5q61 0 101.5 -40.5t40.5 -100.5t-40.5 -100.5t-101.5 -40.5q-60 0 -100.5 40.5t-40.5 100.5z" />
<glyph unicode="/" horiz-adv-x="856" d="M59 -164l543 1585h197l-545 -1585h-195z" />
<glyph unicode="0" d="M104 680q0 333 147.5 516.5t414.5 183.5t414 -183.5t147 -516.5t-147 -516.5t-414 -183.5t-414.5 183.5t-147.5 516.5zM336 680q0 -236 86 -365t244 -129t243.5 128.5t85.5 365.5t-85.5 365.5t-243.5 128.5t-244 -129t-86 -365z" />
<glyph unicode="1" d="M303 854v238l490 268h186v-1360h-229v1098z" />
<glyph unicode="2" d="M188 0v217l306 242q248 193 336 296.5t88 202.5q0 104 -73 160t-210 56q-118 0 -227 -44t-189 -124h-12v245q83 61 195 95t229 34q251 0 384.5 -105.5t133.5 -303.5q0 -163 -106 -302.5t-388 -344.5l-155 -113v-4h649v-207h-961z" />
<glyph unicode="3" d="M186 119v246h13q69 -83 189.5 -131t258.5 -48q148 0 228.5 55.5t80.5 159.5q0 97 -73.5 142t-233.5 45h-198v200h172q161 0 235 43t74 136q0 101 -76.5 154t-218.5 53q-116 0 -226.5 -45t-183.5 -123h-12v245q77 61 195.5 95t248.5 34q235 0 369.5 -100.5t134.5 -278.5 q0 -214 -190 -305v-4q105 -45 161 -127t56 -196q0 -184 -143 -286.5t-396 -102.5q-146 0 -270 37t-195 102z" />
<glyph unicode="4" d="M96 260v195l748 905h239v-893h187v-207h-187v-260h-229v260h-758zM365 467h489v600z" />
<glyph unicode="5" d="M170 104v236h12q72 -74 189.5 -114t261.5 -40q155 0 239 64.5t84 183.5q0 242 -364 242q-202 0 -367 -76h-12v760h887v-207h-682v-307q102 31 268 31q236 0 370 -117t134 -324q0 -215 -145 -335.5t-402 -120.5q-150 0 -274.5 32.5t-198.5 91.5z" />
<glyph unicode="6" d="M127 643q0 344 166.5 540.5t456.5 196.5q239 0 364 -92v-233h-12q-122 119 -330 119q-181 0 -287 -109t-123 -311h5q141 135 385 135q214 0 341.5 -122t127.5 -321q0 -210 -139 -338t-367 -128q-279 0 -433.5 173.5t-154.5 489.5zM369 510q13 -152 103.5 -238t236.5 -86 q126 0 202 70t76 186q0 115 -73.5 181.5t-198.5 66.5q-111 0 -202 -46t-144 -134z" />
<glyph unicode="7" d="M137 1153v207h1102v-217l-735 -1143h-271l752 1153h-848z" />
<glyph unicode="8" d="M100 367q0 232 238 313v4q-197 90 -197 317q0 178 139.5 278.5t385.5 100.5t385 -100.5t139 -278.5q0 -211 -197 -294v-5q238 -86 238 -335q0 -183 -149.5 -285t-415.5 -102t-416 102t-150 285zM334 389q0 -98 86.5 -150.5t245.5 -52.5t245 52.5t86 150.5 q0 102 -81 150.5t-250 48.5t-250.5 -48.5t-81.5 -150.5zM373 979q0 -98 71.5 -144.5t221.5 -46.5q149 0 220.5 46.5t71.5 144.5q0 95 -76 145t-216 50t-216.5 -50t-76.5 -145z" />
<glyph unicode="9" d="M111 913q0 211 139 339t366 128q279 0 433.5 -173.5t154.5 -489.5q0 -344 -166 -540.5t-456 -196.5q-240 0 -365 92v233h12q122 -119 330 -119q181 0 287 109t123 311h-4q-141 -135 -387 -135q-213 0 -340 121.5t-127 320.5zM344 918q0 -115 73.5 -181.5t198.5 -66.5 q111 0 202.5 46t144.5 134q-13 152 -103.5 238t-236.5 86q-126 0 -202.5 -70t-76.5 -186z" />
<glyph unicode=":" horiz-adv-x="536" d="M127 121q0 60 40.5 100.5t100.5 40.5q61 0 101.5 -40.5t40.5 -100.5t-40.5 -100.5t-101.5 -40.5q-60 0 -100.5 40.5t-40.5 100.5zM127 807q0 60 40.5 100.5t100.5 40.5q61 0 101.5 -40.5t40.5 -100.5t-40.5 -100.5t-101.5 -40.5q-60 0 -100.5 40.5t-40.5 100.5z" />
<glyph unicode=";" horiz-adv-x="536" d="M10 -240l174 482h224l-220 -482h-178zM127 807q0 60 40.5 100.5t100.5 40.5q61 0 101.5 -40.5t40.5 -100.5t-40.5 -100.5t-101.5 -40.5q-60 0 -100.5 40.5t-40.5 100.5z" />
<glyph unicode="&#x3c;" d="M143 532v164l1049 459v-211l-778 -328v-4l778 -327v-211z" />
<glyph unicode="=" d="M121 250v192h1089v-192h-1089zM121 786v193h1089v-193h-1089z" />
<glyph unicode="&#x3e;" d="M139 74v211l779 327v4l-779 328v211l1049 -459v-164z" />
<glyph unicode="?" horiz-adv-x="1005" d="M47 1006v245q79 61 189.5 95t232.5 34q226 0 354.5 -103.5t128.5 -285.5q0 -155 -98.5 -255.5t-321.5 -172.5v-155h-210v292q216 47 307.5 111.5t91.5 167.5q0 93 -66.5 144t-187.5 51q-118 0 -224.5 -44t-183.5 -124h-12zM285 121q0 60 40.5 100.5t100.5 40.5 t100.5 -40.5t40.5 -100.5t-40.5 -100.5t-100.5 -40.5t-100.5 40.5t-40.5 100.5z" />
<glyph unicode="@" horiz-adv-x="1595" d="M102 563q0 210 93 378t259 262.5t373 94.5q156 0 286 -50t219 -138t138.5 -212.5t49.5 -270.5q0 -192 -84 -303t-219 -111q-65 0 -109 32.5t-59 90.5h-5q-80 -123 -260 -123q-151 0 -248.5 102.5t-97.5 259.5t97.5 259t248.5 102q171 0 252 -111h4l2 97h125v-480 q0 -53 16 -75.5t52 -22.5q70 0 110.5 75t40.5 212q0 249 -151.5 401t-409.5 152q-124 0 -232 -47t-184 -129t-119.5 -197.5t-43.5 -247.5q0 -171 80 -306t221.5 -210.5t318.5 -75.5q132 0 249.5 38t199.5 106h10v-135q-177 -123 -461 -123q-219 0 -392.5 89t-271.5 250.5 t-98 366.5zM588 575q0 -103 61.5 -167t159.5 -64q96 0 157.5 64.5t61.5 166.5q0 101 -61.5 165.5t-157.5 64.5q-98 0 -159.5 -64.5t-61.5 -165.5z" />
<glyph unicode="A" horiz-adv-x="1499" d="M33 0l598 1360h235l600 -1360h-264l-108 256h-697l-108 -256h-256zM487 471h517l-256 610h-5z" />
<glyph unicode="B" horiz-adv-x="1316" d="M154 0v1360h569q237 0 358 -93t121 -276q0 -216 -184 -295v-4q233 -71 233 -317q0 -186 -121 -280.5t-356 -94.5h-620zM399 219h369q236 0 236 178q0 183 -250 183h-355v-361zM399 793h306q127 0 189 43.5t62 132.5q0 172 -235 172h-322v-348z" />
<glyph unicode="C" horiz-adv-x="1320" d="M70 680q0 309 200.5 504.5t522.5 195.5q142 0 245 -29t185 -91v-269h-13q-141 170 -407 170q-218 0 -352 -133t-134 -348t134 -348t352 -133q266 0 407 170h13v-269q-167 -120 -430 -120q-322 0 -522.5 195.5t-200.5 504.5z" />
<glyph unicode="D" horiz-adv-x="1482" d="M154 0v1360h536q344 0 533.5 -179t189.5 -501t-189.5 -501t-533.5 -179h-536zM399 219h279q234 0 360.5 120t126.5 341t-126.5 341t-360.5 120h-279v-922z" />
<glyph unicode="E" horiz-adv-x="1257" d="M154 0v1360h1005v-219h-760v-350h613v-213h-613v-359h760v-219h-1005z" />
<glyph unicode="F" horiz-adv-x="1220" d="M154 0v1360h1005v-219h-760v-369h613v-219h-613v-553h-245z" />
<glyph unicode="G" horiz-adv-x="1437" d="M70 680q0 320 203 510t544 190q306 0 490 -120v-269h-13q-179 170 -469 170q-231 0 -369.5 -131t-138.5 -350t138.5 -350t369.5 -131q135 0 244 34v277h-350v213h588v-623q-184 -120 -490 -120q-341 0 -544 190t-203 510z" />
<glyph unicode="H" horiz-adv-x="1505" d="M154 0v1360h245v-563h707v563h246v-1360h-246v578h-707v-578h-245z" />
<glyph unicode="I" horiz-adv-x="552" d="M154 0v1360h245v-1360h-245z" />
<glyph unicode="J" horiz-adv-x="1044" d="M53 98v260h13q56 -74 146 -116.5t191 -42.5q273 0 273 299v862h246v-887q0 -243 -124.5 -368t-367.5 -125q-229 0 -377 118z" />
<glyph unicode="K" horiz-adv-x="1341" d="M154 0v1360h245v-596l570 596h319l-663 -670l684 -690h-334l-576 602v-602h-245z" />
<glyph unicode="L" horiz-adv-x="1183" d="M154 0v1360h245v-1141h731v-219h-976z" />
<glyph unicode="M" horiz-adv-x="1929" d="M154 0v1360h368l436 -1038h5l436 1038h377v-1360h-246v1096h-4l-459 -1096h-223l-449 1075h-4v-1075h-237z" />
<glyph unicode="N" horiz-adv-x="1515" d="M154 0v1360h338l628 -1016h4v1016h238v-1360h-297l-670 1092h-4v-1092h-237z" />
<glyph unicode="O" horiz-adv-x="1560" d="M70 680q0 203 90 362.5t252 248.5t368 89t368.5 -89t252.5 -248.5t90 -362.5t-90 -362.5t-252.5 -248.5t-368.5 -89t-368 89t-252 248.5t-90 362.5zM317 680q0 -214 128.5 -347.5t334.5 -133.5t334.5 133.5t128.5 347.5t-128.5 347.5t-334.5 133.5t-334.5 -133.5 t-128.5 -347.5z" />
<glyph unicode="P" horiz-adv-x="1304" d="M154 0v1360h591q248 0 374 -111t126 -329q0 -217 -126.5 -328t-373.5 -111h-346v-481h-245zM399 700h336q262 0 262 220q0 113 -64.5 167t-197.5 54h-336v-441z" />
<glyph unicode="Q" horiz-adv-x="1556" d="M70 680q0 203 90 362.5t252 248.5t368 89t368.5 -89t252.5 -248.5t90 -362.5q0 -167 -62.5 -306.5t-177.5 -234.5l232 -295h-269l-145 187q-136 -51 -289 -51q-206 0 -368 89t-252 248.5t-90 362.5zM317 680q0 -214 128.5 -347.5t334.5 -133.5q76 0 144 18l-240 307h268 l156 -198q135 132 135 354q0 214 -128.5 347.5t-334.5 133.5t-334.5 -133.5t-128.5 -347.5z" />
<glyph unicode="R" horiz-adv-x="1359" d="M154 0v1360h602q247 0 373 -109t126 -323q0 -331 -301 -408l342 -520h-290l-304 498h-303v-498h-245zM399 717h349q260 0 260 211q0 213 -260 213h-349v-424z" />
<glyph unicode="S" horiz-adv-x="1198" d="M88 109v262h12q187 -172 492 -172q141 0 218 48.5t77 139.5q0 79 -68.5 119.5t-247.5 60.5q-263 29 -372 119.5t-109 271.5q0 196 142.5 309t388.5 113q133 0 249.5 -29t182.5 -79v-260h-13q-66 71 -177.5 110t-246.5 39q-129 0 -205.5 -51t-76.5 -137q0 -74 66.5 -112.5 t234.5 -55.5q268 -27 381.5 -124.5t113.5 -287.5q0 -195 -140 -304t-392 -109q-340 0 -510 129z" />
<glyph unicode="T" horiz-adv-x="1206" d="M53 1141v219h1100v-219h-426v-1141h-246v1141h-428z" />
<glyph unicode="U" horiz-adv-x="1417" d="M123 575v785h246v-768q0 -193 87.5 -293t256.5 -100q168 0 256 100t88 293v768h237v-785q0 -295 -147.5 -445t-439.5 -150q-290 0 -437 150t-147 445z" />
<glyph unicode="V" horiz-adv-x="1417" d="M33 1360h264l414 -1049h4l413 1049h256l-557 -1360h-237z" />
<glyph unicode="W" horiz-adv-x="2062" d="M39 1360h258l303 -991h4l324 991h213l321 -993h4l306 993h251l-434 -1360h-248l-309 952h-4l-311 -952h-246z" />
<glyph unicode="X" horiz-adv-x="1447" d="M55 0l504 692l-483 668h299l354 -510l356 510h287l-481 -666l502 -694h-297l-375 539l-377 -539h-289z" />
<glyph unicode="Y" horiz-adv-x="1404" d="M12 1360h299l398 -572l397 572h287l-566 -780v-580h-245v575z" />
<glyph unicode="Z" horiz-adv-x="1316" d="M96 0v207l787 934h-746v219h1073v-207l-786 -934h797v-219h-1125z" />
<glyph unicode="[" horiz-adv-x="792" d="M168 -209v1569h514v-172h-303v-1227h303v-170h-514z" />
<glyph unicode="\" horiz-adv-x="856" d="M59 1421h195l545 -1585h-197z" />
<glyph unicode="]" horiz-adv-x="792" d="M111 -37h303v1227h-303v170h514v-1569h-514v172z" />
<glyph unicode="^" d="M96 569l488 791h164l487 -791h-223l-346 574l-347 -574h-223z" />
<glyph unicode="_" horiz-adv-x="1024" d="M0 -131h1024v-143h-1024v143z" />
<glyph unicode="`" horiz-adv-x="1024" d="M166 1446h242l235 -346h-211z" />
<glyph unicode="a" horiz-adv-x="1208" d="M70 479q0 218 134.5 360t340.5 142q231 0 344 -158h4l8 138h180v-961h-180l-6 137h-4q-53 -75 -142 -116t-204 -41q-206 0 -340.5 140.5t-134.5 358.5zM289 479q0 -134 81 -219.5t210 -85.5t209.5 85.5t80.5 219.5q0 137 -80.5 222t-209.5 85t-210 -85.5t-81 -221.5z" />
<glyph unicode="b" horiz-adv-x="1210" d="M127 0v1434h217v-576h4q114 123 318 123q206 0 340.5 -142t134.5 -360t-134.5 -358.5t-340.5 -140.5q-235 0 -347 157h-4l-6 -137h-182zM338 479q0 -134 82 -219.5t211 -85.5q127 0 209 85.5t82 219.5q0 136 -81.5 221.5t-209.5 85.5q-129 0 -211 -85.5t-82 -221.5z" />
<glyph unicode="c" horiz-adv-x="987" d="M70 479q0 223 143.5 362.5t376.5 139.5q191 0 307 -84v-235h-10q-98 124 -277 124q-148 0 -234.5 -84t-86.5 -223q0 -137 86.5 -221t234.5 -84q177 0 277 127h10v-240q-106 -81 -307 -81q-233 0 -376.5 139t-143.5 360z" />
<glyph unicode="d" horiz-adv-x="1208" d="M70 479q0 218 134.5 360t340.5 142q200 0 315 -121h4v574h217v-1434h-180l-6 137h-4q-53 -75 -142 -116t-204 -41q-206 0 -340.5 140.5t-134.5 358.5zM289 479q0 -134 81 -219.5t210 -85.5t209.5 85.5t80.5 219.5q0 137 -80.5 222t-209.5 85t-210 -85.5t-81 -221.5z" />
<glyph unicode="e" horiz-adv-x="1122" d="M70 479q0 221 139.5 361.5t359.5 140.5q223 0 354.5 -125t131.5 -336v-106h-764q20 -115 112.5 -179.5t235.5 -64.5q215 0 346 125h10v-215q-130 -100 -364 -100q-252 0 -406.5 137.5t-154.5 361.5zM291 575h563q-13 98 -89.5 157t-189.5 59q-104 0 -184 -60t-100 -156z " />
<glyph unicode="f" horiz-adv-x="731" d="M25 772v189h170v137q0 171 88.5 263.5t253.5 92.5q126 0 194 -35v-202h-10q-61 43 -152 43q-76 0 -116.5 -44.5t-40.5 -128.5v-126h293v-189h-293v-772h-217v772h-170z" />
<glyph unicode="g" horiz-adv-x="1208" d="M70 485q0 217 134.5 356.5t340.5 139.5q115 0 203.5 -41.5t142.5 -116.5h4l6 138h180v-883q0 -228 -139 -358t-385 -130q-124 0 -226.5 30.5t-168.5 86.5v225h10q57 -69 151 -108t207 -39q161 0 247.5 79.5t86.5 225.5v23h-4q-115 -121 -315 -121q-207 0 -341 138 t-134 355zM289 485q0 -134 80.5 -216.5t210.5 -82.5q129 0 209.5 82t80.5 217q0 136 -80 218.5t-210 82.5t-210.5 -82.5t-80.5 -218.5z" />
<glyph unicode="h" horiz-adv-x="1136" d="M127 0v1434h217v-578h4q103 125 297 125q180 0 282.5 -111t102.5 -307v-563h-217v539q0 118 -59 182.5t-164 64.5q-116 0 -181 -74.5t-65 -207.5v-504h-217z" />
<glyph unicode="i" horiz-adv-x="473" d="M98 1260q0 62 38.5 100.5t99.5 38.5q63 0 101 -38.5t38 -100.5t-38 -100t-101 -38q-62 0 -100 38t-38 100zM127 0v961h217v-961h-217z" />
<glyph unicode="j" horiz-adv-x="473" d="M-49 -190h10q36 -25 78 -25q47 0 67.5 27.5t20.5 89.5v1059h217v-1076q0 -146 -67.5 -220.5t-196.5 -74.5q-68 0 -129 21v199zM98 1260q0 62 38.5 100.5t99.5 38.5q63 0 101 -38.5t38 -100.5t-38 -100t-101 -38q-62 0 -100 38t-38 100z" />
<glyph unicode="k" horiz-adv-x="1050" d="M127 0v1434h217v-885l389 412h273l-457 -469l477 -492h-287l-395 420v-420h-217z" />
<glyph unicode="l" horiz-adv-x="471" d="M127 0v1434h217v-1434h-217z" />
<glyph unicode="m" horiz-adv-x="1728" d="M131 0v961h180l6 -140h5q88 160 301 160q102 0 179.5 -44t119.5 -128h4q88 172 336 172q173 0 266.5 -108t93.5 -306v-567h-217v545q0 118 -51 179.5t-148 61.5q-221 0 -221 -290v-496h-217v545q0 118 -51.5 179.5t-149.5 61.5q-107 0 -163 -70t-56 -204v-512h-217z" />
<glyph unicode="n" horiz-adv-x="1136" d="M127 0v961h182l8 -148h5q94 168 323 168q180 0 282.5 -111t102.5 -307v-563h-217v539q0 118 -59 182.5t-164 64.5q-116 0 -181 -74.5t-65 -207.5v-504h-217z" />
<glyph unicode="o" horiz-adv-x="1161" d="M70 479q0 221 143 361.5t367 140.5q225 0 368.5 -140.5t143.5 -361.5q0 -219 -143.5 -359t-368.5 -140q-224 0 -367 139.5t-143 359.5zM289 479q0 -134 81 -219.5t210 -85.5q130 0 211 85.5t81 219.5q0 137 -81 222t-211 85q-129 0 -210 -85.5t-81 -221.5z" />
<glyph unicode="p" horiz-adv-x="1210" d="M127 -389v1350h182l6 -138h4q54 75 142.5 116.5t204.5 41.5q206 0 340.5 -142t134.5 -360t-134.5 -358.5t-340.5 -140.5q-205 0 -318 122h-4v-491h-217zM338 479q0 -134 82 -219.5t211 -85.5q127 0 209 85.5t82 219.5q0 136 -81.5 221.5t-209.5 85.5q-129 0 -211 -85.5 t-82 -221.5z" />
<glyph unicode="q" horiz-adv-x="1208" d="M70 479q0 218 134.5 360t340.5 142q115 0 203.5 -41.5t142.5 -116.5h4l6 138h180v-1350h-217v489h-4q-114 -120 -315 -120q-206 0 -340.5 140.5t-134.5 358.5zM289 479q0 -134 81 -219.5t210 -85.5t209.5 85.5t80.5 219.5q0 137 -80.5 222t-209.5 85t-210 -85.5 t-81 -221.5z" />
<glyph unicode="r" horiz-adv-x="784" d="M127 0v961h182l8 -148h5q83 168 296 168q87 0 144 -37v-215h-10q-64 45 -152 45q-256 0 -256 -348v-426h-217z" />
<glyph unicode="s" horiz-adv-x="890" d="M80 670q0 141 105.5 226t279.5 85q198 0 307 -70v-223h-10q-100 103 -291 103q-78 0 -128 -32t-50 -83q0 -42 40 -62t144 -26q190 -10 273.5 -82.5t83.5 -220.5q0 -141 -102.5 -223t-282.5 -82q-242 0 -365 94v227h10q122 -131 344 -131q84 0 133.5 31t49.5 84 q0 49 -42.5 72t-156.5 32q-187 15 -264.5 79.5t-77.5 201.5z" />
<glyph unicode="t" horiz-adv-x="778" d="M25 772v189h176l30 264h181v-264h293v-189h-293v-434q0 -78 39.5 -122t109.5 -44q85 0 137 57h11v-215q-67 -34 -181 -34q-163 0 -248 90t-85 260v442h-170z" />
<glyph unicode="u" horiz-adv-x="1136" d="M106 397v564h218v-539q0 -117 58.5 -182.5t164.5 -65.5q115 0 179.5 75.5t64.5 207.5v504h217v-961h-183l-8 145h-4q-95 -165 -321 -165q-182 0 -284 110.5t-102 306.5z" />
<glyph unicode="v" horiz-adv-x="1028" d="M14 961h234l268 -725h4l271 725h223l-389 -961h-222z" />
<glyph unicode="w" horiz-adv-x="1560" d="M14 961h232l211 -682h4l237 682h174l238 -682h4l211 682h221l-329 -961h-213l-222 647h-4l-223 -647h-209z" />
<glyph unicode="x" horiz-adv-x="1093" d="M33 0l375 494l-355 467h264l236 -332l233 332h254l-352 -467l373 -494h-264l-254 360l-256 -360h-254z" />
<glyph unicode="y" horiz-adv-x="1028" d="M14 961h234l268 -697h4l271 697h223l-576 -1350h-223l186 420z" />
<glyph unicode="z" horiz-adv-x="1009" d="M84 0v174l539 598h-508v189h800v-175l-538 -598h549v-188h-842z" />
<glyph unicode="{" horiz-adv-x="823" d="M47 489v173h45q90 0 131 45.5t41 150.5v201q0 152 74.5 226.5t228.5 74.5h148v-172h-109q-131 0 -131 -129v-170q0 -132 -39.5 -207t-124.5 -104v-5q85 -29 124.5 -104t39.5 -207v-170q0 -129 131 -129h109v-172h-148q-154 0 -228.5 74.5t-74.5 226.5v201 q0 105 -41 150.5t-131 45.5h-45z" />
<glyph unicode="|" horiz-adv-x="686" d="M262 -389v1823h162v-1823h-162z" />
<glyph unicode="}" horiz-adv-x="823" d="M109 -37h108q131 0 131 129v170q0 132 39.5 207t124.5 104v5q-85 29 -124.5 104t-39.5 207v170q0 129 -131 129h-108v172h147q154 0 228.5 -74.5t74.5 -226.5v-201q0 -105 41 -150.5t131 -45.5h45v-173h-45q-90 0 -131 -45.5t-41 -150.5v-201q0 -152 -74.5 -226.5 t-228.5 -74.5h-147v172z" />
<glyph unicode="~" d="M61 514q156 295 369 295q70 0 135 -25.5t152 -89.5q63 -46 103 -64t77 -18q54 0 104.5 46.5t110.5 150.5l158 -94q-156 -295 -369 -295q-69 0 -132.5 24t-152.5 88q-69 50 -106.5 67t-75.5 17q-54 0 -104.5 -46t-110.5 -150z" />
<glyph unicode="&#xa1;" horiz-adv-x="536" d="M127 1239q0 60 40 100.5t101 40.5q60 0 101 -40.5t41 -100.5t-41 -100.5t-101 -40.5q-61 0 -101 40.5t-40 100.5zM139 0l29 952h201l28 -952h-258z" />
<glyph unicode="&#xa2;" d="M207 573q0 220 135 360t363 159v180h151v-182q161 -15 252 -82v-248h-12q-97 111 -240 125v-621q146 14 240 125h12v-250q-86 -68 -252 -80v-182h-151v180q-228 19 -363 158t-135 358zM438 573q0 -125 70.5 -204t196.5 -101v613q-126 -22 -196.5 -102t-70.5 -206z" />
<glyph unicode="&#xa3;" d="M180 0v217q77 50 109.5 114.5t32.5 170.5v80h-142v188h142v154q0 220 115.5 338t330.5 118q231 0 381 -108v-246h-12q-142 148 -334 148q-123 0 -187.5 -69t-64.5 -204v-131h444v-188h-444v-29q0 -125 -33.5 -205t-109.5 -137v-4h741v-207h-969z" />
<glyph unicode="&#xa4;" d="M176 317l150 146q-62 97 -62 217t62 217l-150 145l127 127l146 -149q95 61 217 61t217 -61l145 149l127 -127l-149 -145q61 -99 61 -217t-61 -217l149 -146l-127 -127l-145 150q-95 -61 -217 -61t-217 61l-146 -150zM438 680q0 -98 65.5 -164.5t162.5 -66.5t162 66.5 t65 164.5t-65 164.5t-162 66.5t-162.5 -66.5t-65.5 -164.5z" />
<glyph unicode="&#xa5;" d="M78 1360h278l316 -461l313 461h268l-454 -627h387v-160h-406v-161h406v-160h-406v-252h-229v252h-404v160h404v161h-404v160h385z" />
<glyph unicode="&#xa6;" horiz-adv-x="686" d="M262 -389v799h162v-799h-162zM262 635v799h162v-799h-162z" />
<glyph unicode="&#xa7;" horiz-adv-x="1122" d="M123 592q0 181 153 270v4q-120 72 -120 248q0 158 113 249t309 91q210 0 331 -74v-204h-10q-109 98 -317 98q-105 0 -166.5 -42.5t-61.5 -109.5q0 -58 52.5 -88t187.5 -45q219 -24 312 -105.5t93 -236.5q0 -173 -147 -264v-4q115 -79 115 -254q0 -157 -111.5 -245.5 t-308.5 -88.5q-251 0 -391 92v209h10q131 -119 371 -119q109 0 171 41t62 109q0 62 -54.5 93t-195.5 48q-216 26 -306.5 102.5t-90.5 225.5zM324 618q0 -68 55 -101.5t201 -55.5q40 -6 69 -12q70 17 111 65t41 113q0 72 -55 108t-199 56q-39 5 -64 10q-73 -15 -116 -64.5 t-43 -118.5z" />
<glyph unicode="&#xa8;" horiz-adv-x="1024" d="M170 1260q0 57 36 94t93 37q59 0 95 -36.5t36 -94.5t-36 -94t-95 -36q-57 0 -93 36.5t-36 93.5zM594 1260q0 58 36 94.5t95 36.5q57 0 93 -37t36 -94t-36 -93.5t-93 -36.5q-59 0 -95 36t-36 94z" />
<glyph unicode="&#xa9;" horiz-adv-x="1603" d="M102 680q0 198 91 358t251.5 251t358.5 91t358 -91t251 -251t91 -358t-91 -358t-251 -251t-358 -91t-358.5 91t-251.5 251t-91 358zM244 680q0 -162 73 -292.5t200.5 -203.5t285.5 -73q239 0 398 161.5t159 407.5t-159 407.5t-398 161.5q-158 0 -285.5 -73t-200.5 -203.5 t-73 -292.5zM442 680q0 162 105 265.5t276 103.5q138 0 221 -60v-162h-10q-69 88 -205 88q-105 0 -170 -65t-65 -170t65 -170.5t170 -65.5q132 0 205 88h10v-161q-88 -60 -221 -60q-171 0 -276 103.5t-105 265.5z" />
<glyph unicode="&#xaa;" horiz-adv-x="909" d="M78 1030q0 152 94 251t240 99q148 0 227 -98h4l4 78h144v-666h-144l-4 86h-4q-78 -100 -227 -100q-146 0 -240 99t-94 251zM252 1030q0 -88 51 -143.5t133 -55.5q83 0 135 55.5t52 143.5t-52 143.5t-135 55.5q-82 0 -133 -55.5t-51 -143.5z" />
<glyph unicode="&#xab;" horiz-adv-x="1028" d="M59 473v14l430 441v-228l-227 -221l227 -219v-227zM494 473v14l430 441v-228l-228 -221l228 -219v-227z" />
<glyph unicode="&#xac;" d="M111 662v192h1110v-661h-193v469h-917z" />
<glyph unicode="&#xad;" horiz-adv-x="757" d="M90 451v219h578v-219h-578z" />
<glyph unicode="&#xae;" horiz-adv-x="1603" d="M102 680q0 198 91 358t251.5 251t358.5 91t358 -91t251 -251t91 -358t-91 -358t-251 -251t-358 -91t-358.5 91t-251.5 251t-91 358zM244 680q0 -162 73 -292.5t200.5 -203.5t285.5 -73q239 0 398 161.5t159 407.5t-159 407.5t-398 161.5q-158 0 -285.5 -73t-200.5 -203.5 t-73 -292.5zM528 322v716h320q268 0 268 -231q0 -175 -158 -219l181 -266h-176l-152 253h-133v-253h-150zM678 702h164q123 0 123 101q0 102 -123 102h-164v-203z" />
<glyph unicode="&#xaf;" horiz-adv-x="1024" d="M180 1169v177h664v-177h-664z" />
<glyph unicode="&#xb0;" horiz-adv-x="796" d="M90 1073q0 132 88 219.5t221 87.5q132 0 219 -87.5t87 -219.5t-87 -219.5t-219 -87.5q-133 0 -221 87.5t-88 219.5zM231 1073q0 -76 47 -125t121 -49q72 0 120 49t48 125t-48 125t-120 49q-74 0 -121 -49t-47 -125z" />
<glyph unicode="&#xb1;" d="M111 0v193h458v419h-458v193h458v436h193v-436h459v-193h-459v-419h459v-193h-1110z" />
<glyph unicode="&#xb2;" horiz-adv-x="839" d="M129 795v153l193 150q134 106 180.5 163t46.5 115q0 60 -41 92.5t-119 32.5q-133 0 -237 -104h-11v174q47 35 115 55.5t139 20.5q153 0 234.5 -66t81.5 -190q0 -94 -56.5 -171t-220.5 -204l-90 -72v-4h367v-145h-582z" />
<glyph unicode="&#xb3;" horiz-adv-x="839" d="M131 864v174h10q41 -52 111.5 -81t155.5 -29q167 0 167 114q0 109 -169 109h-115v139h100q170 0 170 103q0 108 -160 108q-69 0 -132.5 -27t-108.5 -75h-10v172q46 35 118 55.5t150 20.5q145 0 225 -62t80 -174q0 -126 -113 -186v-4q127 -57 127 -197q0 -114 -85.5 -178 t-239.5 -64q-89 0 -163.5 22t-117.5 60z" />
<glyph unicode="&#xb4;" horiz-adv-x="1024" d="M383 1100l235 346h242l-266 -346h-211z" />
<glyph unicode="&#xb5;" horiz-adv-x="1169" d="M133 -389v1350h217v-539q0 -117 59.5 -182.5t163.5 -65.5q116 0 181 75t65 208v504h217v-961h-180l-8 145h-4q-95 -165 -326 -165q-99 0 -168 34v-403h-217z" />
<glyph unicode="&#xb6;" horiz-adv-x="1198" d="M70 993q0 218 126 329.5t373 111.5h553v-142h-110v-1681h-148v1681h-233v-1681h-148v948q-204 19 -308.5 128.5t-104.5 305.5z" />
<glyph unicode="&#xb7;" horiz-adv-x="536" d="M127 680q0 60 40.5 100.5t100.5 40.5q61 0 101.5 -40.5t40.5 -100.5t-40.5 -100.5t-101.5 -40.5q-60 0 -100.5 40.5t-40.5 100.5z" />
<glyph unicode="&#xb8;" horiz-adv-x="1024" d="M309 -248h8q74 -41 162 -41q37 0 58.5 15t21.5 38q0 52 -84 52q-32 0 -94 -15v27l98 172h103l-58 -104v-5h4q99 0 146 -39t47 -108q0 -154 -234 -154q-107 0 -178 31v131z" />
<glyph unicode="&#xb9;" horiz-adv-x="839" d="M250 1311v162l248 161h127v-839h-160v651z" />
<glyph unicode="&#xba;" horiz-adv-x="872" d="M78 1030q0 154 100.5 252t257.5 98q158 0 259.5 -98t101.5 -252q0 -155 -101 -252.5t-260 -97.5q-157 0 -257.5 97.5t-100.5 252.5zM252 1030q0 -88 51 -143.5t133 -55.5q83 0 135 55.5t52 143.5t-52 143.5t-135 55.5q-82 0 -133 -55.5t-51 -143.5z" />
<glyph unicode="&#xbb;" horiz-adv-x="1028" d="M102 33v227l228 221l-228 219v228l430 -441v-14zM537 33v227l227 221l-227 219v228l430 -441v-14z" />
<glyph unicode="&#xbc;" horiz-adv-x="1994" d="M250 1036v162l248 162h127v-840h-160v651zM557 0l881 1360h172l-881 -1360h-172zM1237 156v137l440 547h158v-539h107v-145h-107v-156h-160v156h-438zM1411 301h264v328h-2z" />
<glyph unicode="&#xbd;" horiz-adv-x="1994" d="M250 1036v162l248 162h127v-840h-160v651zM471 0l881 1360h172l-881 -1360h-172zM1284 0v154l193 149q134 106 180.5 163.5t46.5 115.5q0 60 -41 92.5t-119 32.5q-132 0 -237 -105h-11v174q47 35 115 55.5t139 20.5q153 0 234.5 -66t81.5 -190q0 -94 -56.5 -171 t-220.5 -204l-90 -71v-5h367v-145h-582z" />
<glyph unicode="&#xbe;" horiz-adv-x="1994" d="M131 590v174h10q41 -52 111.5 -81.5t155.5 -29.5q167 0 167 115q0 109 -169 109h-115v139h100q86 0 128 24.5t42 77.5q0 109 -160 109q-68 0 -132 -27.5t-109 -75.5h-10v172q46 35 118 55.5t150 20.5q145 0 225 -61.5t80 -173.5q0 -127 -113 -187v-4q127 -57 127 -196 q0 -114 -85.5 -178t-239.5 -64q-89 0 -163.5 22t-117.5 60zM565 0l881 1360h172l-881 -1360h-172zM1237 156v137l440 547h158v-539h107v-145h-107v-156h-160v156h-438zM1411 301h264v328h-2z" />
<glyph unicode="&#xbf;" horiz-adv-x="1005" d="M53 369q0 155 98.5 255.5t321.5 172.5v155h211v-293q-216 -47 -307.5 -111t-91.5 -167q0 -93 66.5 -144t187.5 -51q118 0 224 44t183 124h12v-245q-80 -62 -190 -95.5t-231 -33.5q-226 0 -355 104t-129 285zM438 1239q0 60 41 100.5t101 40.5t100.5 -40.5t40.5 -100.5 t-40.5 -100.5t-100.5 -40.5t-101 40.5t-41 100.5z" />
<glyph unicode="&#xc0;" horiz-adv-x="1499" d="M33 0l598 1360h235l600 -1360h-264l-108 256h-697l-108 -256h-256zM391 1829h242l235 -346h-211zM487 471h517l-256 610h-5z" />
<glyph unicode="&#xc1;" horiz-adv-x="1499" d="M33 0l598 1360h235l600 -1360h-264l-108 256h-697l-108 -256h-256zM487 471h517l-256 610h-5zM629 1483l235 346h242l-266 -346h-211z" />
<glyph unicode="&#xc2;" horiz-adv-x="1499" d="M33 0l598 1360h235l600 -1360h-264l-108 256h-697l-108 -256h-256zM387 1483l256 346h211l256 -346h-209l-153 188l-152 -188h-209zM487 471h517l-256 610h-5z" />
<glyph unicode="&#xc3;" horiz-adv-x="1499" d="M33 0l598 1360h235l600 -1360h-264l-108 256h-697l-108 -256h-256zM418 1489v178q28 53 76.5 83t105.5 30q76 0 172 -56q78 -45 133 -45q109 0 168 119h8v-178q-28 -53 -76.5 -83t-105.5 -30q-76 0 -172 56q-46 27 -73.5 36t-59.5 9q-108 0 -168 -119h-8zM487 471h517 l-256 610h-5z" />
<glyph unicode="&#xc4;" horiz-adv-x="1499" d="M33 0l598 1360h235l600 -1360h-264l-108 256h-697l-108 -256h-256zM408 1642q0 57 36 94.5t93 37.5q59 0 95 -37t36 -95t-36 -93.5t-95 -35.5q-57 0 -93 36t-36 93zM487 471h517l-256 610h-5zM831 1642q0 58 36.5 95t95.5 37q57 0 93 -37.5t36 -94.5t-36 -93t-93 -36 q-60 0 -96 36t-36 93z" />
<glyph unicode="&#xc5;" horiz-adv-x="1499" d="M33 0l598 1360h235l600 -1360h-264l-108 256h-697l-108 -256h-256zM487 471h517l-256 610h-5zM537 1657q0 92 60.5 152.5t152.5 60.5t152.5 -60.5t60.5 -152.5t-60.5 -152.5t-152.5 -60.5t-152.5 60.5t-60.5 152.5zM662 1657q0 -38 25 -63t63 -25t63 25t25 63t-25 63 t-63 25t-63 -25t-25 -63z" />
<glyph unicode="&#xc6;" horiz-adv-x="2140" d="M12 0l924 1360h1106v-219h-760v-350h612v-213h-612v-359h760v-219h-1006v256h-575l-170 -256h-279zM604 471h432v645h-4z" />
<glyph unicode="&#xc7;" horiz-adv-x="1320" d="M70 680q0 309 200.5 504.5t522.5 195.5q142 0 245 -29t185 -91v-269h-13q-141 170 -407 170q-218 0 -352 -133t-134 -348t134 -348t352 -133q266 0 407 170h13v-269q-159 -117 -412 -120l-47 -84v-5h4q99 0 146 -39t47 -108q0 -154 -234 -154q-107 0 -178 31v131h8 q74 -41 162 -41q37 0 58.5 15t21.5 38q0 52 -84 52q-32 0 -94 -15v27l88 156q-289 26 -464 217.5t-175 478.5z" />
<glyph unicode="&#xc8;" horiz-adv-x="1257" d="M154 0v1360h1005v-219h-760v-350h613v-213h-613v-359h760v-219h-1005zM297 1829h242l235 -346h-211z" />
<glyph unicode="&#xc9;" horiz-adv-x="1257" d="M154 0v1360h1005v-219h-760v-350h613v-213h-613v-359h760v-219h-1005zM535 1483l235 346h242l-267 -346h-210z" />
<glyph unicode="&#xca;" horiz-adv-x="1257" d="M154 0v1360h1005v-219h-760v-350h613v-213h-613v-359h760v-219h-1005zM293 1483l256 346h211l256 -346h-209l-154 188l-151 -188h-209z" />
<glyph unicode="&#xcb;" horiz-adv-x="1257" d="M154 0v1360h1005v-219h-760v-350h613v-213h-613v-359h760v-219h-1005zM313 1642q0 57 36 94.5t93 37.5q59 0 95 -37t36 -95t-35.5 -93.5t-95.5 -35.5q-57 0 -93 36t-36 93zM737 1642q0 58 36 95t95 37q57 0 93 -37.5t36 -94.5t-36 -93t-93 -36q-60 0 -95.5 35.5 t-35.5 93.5z" />
<glyph unicode="&#xcc;" horiz-adv-x="552" d="M-82 1829h242l235 -346h-211zM154 0v1360h245v-1360h-245z" />
<glyph unicode="&#xcd;" horiz-adv-x="552" d="M154 0v1360h245v-1360h-245zM156 1483l235 346h242l-266 -346h-211z" />
<glyph unicode="&#xce;" horiz-adv-x="552" d="M-86 1483l256 346h211l256 -346h-209l-154 188l-151 -188h-209zM154 0v1360h245v-1360h-245z" />
<glyph unicode="&#xcf;" horiz-adv-x="552" d="M-66 1642q0 57 36 94.5t93 37.5q59 0 95.5 -37t36.5 -95q0 -57 -36 -93t-96 -36q-57 0 -93 36t-36 93zM154 0v1360h245v-1360h-245zM358 1642q0 58 36 95t95 37q57 0 93 -37.5t36 -94.5t-36 -93t-93 -36q-59 0 -95 35.5t-36 93.5z" />
<glyph unicode="&#xd0;" horiz-adv-x="1515" d="M41 584v207h145v569h537q344 0 533.5 -179t189.5 -501t-189.5 -501t-533.5 -179h-537v584h-145zM432 219h279q234 0 360.5 120t126.5 341t-126.5 341t-360.5 120h-279v-350h342v-207h-342v-365z" />
<glyph unicode="&#xd1;" horiz-adv-x="1515" d="M154 0v1360h338l628 -1016h4v1016h238v-1360h-297l-670 1092h-4v-1092h-237zM424 1489v178q28 53 76.5 83t105.5 30q76 0 172 -56q78 -45 133 -45q109 0 168 119h8v-178q-28 -53 -76.5 -83t-105.5 -30q-76 0 -172 56q-46 27 -73.5 36t-59.5 9q-108 0 -168 -119h-8z" />
<glyph unicode="&#xd2;" horiz-adv-x="1560" d="M70 680q0 203 90 362.5t252 248.5t368 89t368.5 -89t252.5 -248.5t90 -362.5t-90 -362.5t-252.5 -248.5t-368.5 -89t-368 89t-252 248.5t-90 362.5zM317 680q0 -214 128.5 -347.5t334.5 -133.5t334.5 133.5t128.5 347.5t-128.5 347.5t-334.5 133.5t-334.5 -133.5 t-128.5 -347.5zM422 1829h242l235 -346h-211z" />
<glyph unicode="&#xd3;" horiz-adv-x="1560" d="M70 680q0 203 90 362.5t252 248.5t368 89t368.5 -89t252.5 -248.5t90 -362.5t-90 -362.5t-252.5 -248.5t-368.5 -89t-368 89t-252 248.5t-90 362.5zM317 680q0 -214 128.5 -347.5t334.5 -133.5t334.5 133.5t128.5 347.5t-128.5 347.5t-334.5 133.5t-334.5 -133.5 t-128.5 -347.5zM659 1483l236 346h242l-267 -346h-211z" />
<glyph unicode="&#xd4;" horiz-adv-x="1560" d="M70 680q0 203 90 362.5t252 248.5t368 89t368.5 -89t252.5 -248.5t90 -362.5t-90 -362.5t-252.5 -248.5t-368.5 -89t-368 89t-252 248.5t-90 362.5zM317 680q0 -214 128.5 -347.5t334.5 -133.5t334.5 133.5t128.5 347.5t-128.5 347.5t-334.5 133.5t-334.5 -133.5 t-128.5 -347.5zM418 1483l256 346h211l256 -346h-209l-154 188l-151 -188h-209z" />
<glyph unicode="&#xd5;" horiz-adv-x="1560" d="M70 680q0 203 90 362.5t252 248.5t368 89t368.5 -89t252.5 -248.5t90 -362.5t-90 -362.5t-252.5 -248.5t-368.5 -89t-368 89t-252 248.5t-90 362.5zM317 680q0 -214 128.5 -347.5t334.5 -133.5t334.5 133.5t128.5 347.5t-128.5 347.5t-334.5 133.5t-334.5 -133.5 t-128.5 -347.5zM449 1489v178q28 53 76.5 83t105.5 30q76 0 172 -56q78 -45 133 -45q108 0 168 119h8v-178q-28 -53 -76.5 -83t-105.5 -30q-76 0 -172 56q-46 27 -73.5 36t-59.5 9q-109 0 -168 -119h-8z" />
<glyph unicode="&#xd6;" horiz-adv-x="1560" d="M70 680q0 203 90 362.5t252 248.5t368 89t368.5 -89t252.5 -248.5t90 -362.5t-90 -362.5t-252.5 -248.5t-368.5 -89t-368 89t-252 248.5t-90 362.5zM317 680q0 -214 128.5 -347.5t334.5 -133.5t334.5 133.5t128.5 347.5t-128.5 347.5t-334.5 133.5t-334.5 -133.5 t-128.5 -347.5zM438 1642q0 57 36 94.5t93 37.5q59 0 95 -37t36 -95t-36 -93.5t-95 -35.5q-57 0 -93 36t-36 93zM862 1642q0 58 36 95t95 37q57 0 93 -37.5t36 -94.5t-36 -93t-93 -36q-59 0 -95 35.5t-36 93.5z" />
<glyph unicode="&#xd7;" d="M127 213l401 401l-401 402l137 137l402 -401l401 401l137 -137l-401 -402l401 -401l-137 -137l-401 401l-402 -401z" />
<glyph unicode="&#xd8;" horiz-adv-x="1560" d="M70 0l174 203q-174 190 -174 477q0 203 90 362.5t252 248.5t368 89q215 0 385 -98l68 78h258l-174 -203q174 -190 174 -477q0 -203 -90 -362.5t-252.5 -248.5t-368.5 -89q-215 0 -385 98l-67 -78h-258zM317 680q0 -166 84 -293l613 717q-102 57 -234 57 q-206 0 -334.5 -133.5t-128.5 -347.5zM547 256q102 -57 233 -57q206 0 334.5 133.5t128.5 347.5q0 166 -84 293z" />
<glyph unicode="&#xd9;" horiz-adv-x="1417" d="M123 575v785h246v-768q0 -193 87.5 -293t256.5 -100q168 0 256 100t88 293v768h237v-785q0 -295 -147.5 -445t-439.5 -150q-290 0 -437 150t-147 445zM350 1829h242l235 -346h-211z" />
<glyph unicode="&#xda;" horiz-adv-x="1417" d="M123 575v785h246v-768q0 -193 87.5 -293t256.5 -100q168 0 256 100t88 293v768h237v-785q0 -295 -147.5 -445t-439.5 -150q-290 0 -437 150t-147 445zM588 1483l235 346h242l-266 -346h-211z" />
<glyph unicode="&#xdb;" horiz-adv-x="1417" d="M123 575v785h246v-768q0 -193 87.5 -293t256.5 -100q168 0 256 100t88 293v768h237v-785q0 -295 -147.5 -445t-439.5 -150q-290 0 -437 150t-147 445zM346 1483l256 346h211l256 -346h-209l-153 188l-152 -188h-209z" />
<glyph unicode="&#xdc;" horiz-adv-x="1417" d="M123 575v785h246v-768q0 -193 87.5 -293t256.5 -100q168 0 256 100t88 293v768h237v-785q0 -295 -147.5 -445t-439.5 -150q-290 0 -437 150t-147 445zM367 1642q0 57 36 94.5t93 37.5q59 0 95 -37t36 -95t-35.5 -93.5t-95.5 -35.5q-57 0 -93 36t-36 93zM791 1642 q0 58 36 95t95 37q57 0 93 -37.5t36 -94.5t-36 -93t-93 -36q-60 0 -95.5 35.5t-35.5 93.5z" />
<glyph unicode="&#xdd;" horiz-adv-x="1404" d="M12 1360h299l398 -572l397 572h287l-566 -780v-580h-245v575zM582 1483l235 346h242l-266 -346h-211z" />
<glyph unicode="&#xde;" horiz-adv-x="1304" d="M154 0v1360h245v-211h346q247 0 373.5 -111.5t126.5 -328.5t-126.5 -329t-373.5 -112h-346v-268h-245zM399 487h336q133 0 197.5 54.5t64.5 167.5t-64.5 167t-197.5 54h-336v-443z" />
<glyph unicode="&#xdf;" horiz-adv-x="1134" d="M127 0v1055q0 399 422 399q177 0 280 -89t103 -243q0 -89 -30.5 -154.5t-100.5 -125.5q-41 -34 -55.5 -57t-14.5 -50q0 -33 25.5 -55t93.5 -43q132 -41 190 -121.5t58 -214.5q0 -155 -95 -238t-272 -83q-183 0 -297 71v230h10q49 -51 119.5 -79t145.5 -28q82 0 126 33 t44 94q0 55 -33 89t-119 63q-117 39 -166 102t-49 170q0 73 28.5 129t96.5 117q49 44 67.5 74t18.5 65q0 72 -44.5 111t-127.5 39q-107 0 -157 -52.5t-50 -165.5v-1042h-217z" />
<glyph unicode="&#xe0;" horiz-adv-x="1208" d="M70 479q0 218 134.5 360t340.5 142q231 0 344 -158h4l8 138h180v-961h-180l-6 137h-4q-53 -75 -142 -116t-204 -41q-206 0 -340.5 140.5t-134.5 358.5zM217 1446h242l235 -346h-211zM289 479q0 -134 81 -219.5t210 -85.5t209.5 85.5t80.5 219.5q0 137 -80.5 222 t-209.5 85t-210 -85.5t-81 -221.5z" />
<glyph unicode="&#xe1;" horiz-adv-x="1208" d="M70 479q0 218 134.5 360t340.5 142q231 0 344 -158h4l8 138h180v-961h-180l-6 137h-4q-53 -75 -142 -116t-204 -41q-206 0 -340.5 140.5t-134.5 358.5zM289 479q0 -134 81 -219.5t210 -85.5t209.5 85.5t80.5 219.5q0 137 -80.5 222t-209.5 85t-210 -85.5t-81 -221.5z M455 1100l235 346h242l-266 -346h-211z" />
<glyph unicode="&#xe2;" horiz-adv-x="1208" d="M70 479q0 218 134.5 360t340.5 142q231 0 344 -158h4l8 138h180v-961h-180l-6 137h-4q-53 -75 -142 -116t-204 -41q-206 0 -340.5 140.5t-134.5 358.5zM213 1100l256 346h211l256 -346h-209l-154 188l-151 -188h-209zM289 479q0 -134 81 -219.5t210 -85.5t209.5 85.5 t80.5 219.5q0 137 -80.5 222t-209.5 85t-210 -85.5t-81 -221.5z" />
<glyph unicode="&#xe3;" horiz-adv-x="1208" d="M70 479q0 218 134.5 360t340.5 142q231 0 344 -158h4l8 138h180v-961h-180l-6 137h-4q-53 -75 -142 -116t-204 -41q-206 0 -340.5 140.5t-134.5 358.5zM244 1106v178q28 53 76.5 83t105.5 30q76 0 172 -56q78 -45 133 -45q109 0 168 119h8v-178q-28 -53 -76.5 -83 t-105.5 -30q-76 0 -172 56q-46 27 -73.5 36t-59.5 9q-108 0 -168 -119h-8zM289 479q0 -134 81 -219.5t210 -85.5t209.5 85.5t80.5 219.5q0 137 -80.5 222t-209.5 85t-210 -85.5t-81 -221.5z" />
<glyph unicode="&#xe4;" horiz-adv-x="1208" d="M70 479q0 218 134.5 360t340.5 142q231 0 344 -158h4l8 138h180v-961h-180l-6 137h-4q-53 -75 -142 -116t-204 -41q-206 0 -340.5 140.5t-134.5 358.5zM233 1260q0 57 36 94t93 37q59 0 95.5 -36.5t36.5 -94.5t-36 -94t-96 -36q-57 0 -93 36.5t-36 93.5zM289 479 q0 -134 81 -219.5t210 -85.5t209.5 85.5t80.5 219.5q0 137 -80.5 222t-209.5 85t-210 -85.5t-81 -221.5zM657 1260q0 58 36 94.5t95 36.5q57 0 93.5 -37t36.5 -94t-36.5 -93.5t-93.5 -36.5q-59 0 -95 36t-36 94z" />
<glyph unicode="&#xe5;" horiz-adv-x="1208" d="M70 479q0 218 134.5 360t340.5 142q231 0 344 -158h4l8 138h180v-961h-180l-6 137h-4q-53 -75 -142 -116t-204 -41q-206 0 -340.5 140.5t-134.5 358.5zM289 479q0 -134 81 -219.5t210 -85.5t209.5 85.5t80.5 219.5q0 137 -80.5 222t-209.5 85t-210 -85.5t-81 -221.5z M362 1274q0 92 60.5 152.5t152.5 60.5t152.5 -60.5t60.5 -152.5t-60.5 -152.5t-152.5 -60.5t-152.5 60.5t-60.5 152.5zM487 1274q0 -38 25 -63t63 -25t63.5 25t25.5 63t-25.5 63t-63.5 25t-63 -25t-25 -63z" />
<glyph unicode="&#xe6;" horiz-adv-x="1929" d="M70 479q0 218 134.5 360t340.5 142q114 0 201.5 -40.5t140.5 -113.5h4l4 134h164l4 -134h4q52 73 140.5 113.5t205.5 40.5q212 0 330.5 -122t118.5 -339v-106h-775q22 -116 115 -180t240 -64q222 0 350 125h10v-215q-130 -100 -338 -100q-277 0 -397 153h-4l-4 -133h-164 l-4 133h-4q-112 -153 -342 -153q-206 0 -340.5 140.5t-134.5 358.5zM289 479q0 -134 81 -219.5t210 -85.5t209.5 85.5t80.5 219.5q0 137 -80.5 222t-209.5 85t-210 -85.5t-81 -221.5zM1087 575h574q-19 101 -95 158.5t-190 57.5t-189 -57.5t-100 -158.5z" />
<glyph unicode="&#xe7;" horiz-adv-x="987" d="M70 479q0 223 143.5 362.5t376.5 139.5q191 0 307 -84v-235h-10q-98 124 -277 124q-148 0 -234.5 -84t-86.5 -223q0 -137 86.5 -221t234.5 -84q177 0 277 127h10v-240q-100 -75 -281 -81l-47 -84v-5h4q99 0 146 -39t47 -108q0 -154 -234 -154q-107 0 -178 31v131h8 q74 -41 162 -41q37 0 58.5 15t21.5 38q0 52 -84 52q-32 0 -94 -15v27l88 156q-202 23 -323 158.5t-121 336.5z" />
<glyph unicode="&#xe8;" horiz-adv-x="1122" d="M70 479q0 221 139.5 361.5t359.5 140.5q223 0 354.5 -125t131.5 -336v-106h-764q20 -115 112.5 -179.5t235.5 -64.5q215 0 346 125h10v-215q-130 -100 -364 -100q-252 0 -406.5 137.5t-154.5 361.5zM215 1446h242l235 -346h-211zM291 575h563q-13 98 -89.5 157t-189.5 59 q-104 0 -184 -60t-100 -156z" />
<glyph unicode="&#xe9;" horiz-adv-x="1122" d="M70 479q0 221 139.5 361.5t359.5 140.5q223 0 354.5 -125t131.5 -336v-106h-764q20 -115 112.5 -179.5t235.5 -64.5q215 0 346 125h10v-215q-130 -100 -364 -100q-252 0 -406.5 137.5t-154.5 361.5zM291 575h563q-13 98 -89.5 157t-189.5 59q-104 0 -184 -60t-100 -156z M453 1100l235 346h242l-266 -346h-211z" />
<glyph unicode="&#xea;" horiz-adv-x="1122" d="M70 479q0 221 139.5 361.5t359.5 140.5q223 0 354.5 -125t131.5 -336v-106h-764q20 -115 112.5 -179.5t235.5 -64.5q215 0 346 125h10v-215q-130 -100 -364 -100q-252 0 -406.5 137.5t-154.5 361.5zM211 1100l256 346h211l256 -346h-209l-154 188l-151 -188h-209z M291 575h563q-13 98 -89.5 157t-189.5 59q-104 0 -184 -60t-100 -156z" />
<glyph unicode="&#xeb;" horiz-adv-x="1122" d="M70 479q0 221 139.5 361.5t359.5 140.5q223 0 354.5 -125t131.5 -336v-106h-764q20 -115 112.5 -179.5t235.5 -64.5q215 0 346 125h10v-215q-130 -100 -364 -100q-252 0 -406.5 137.5t-154.5 361.5zM231 1260q0 57 36 94t93 37q59 0 95.5 -36.5t36.5 -94.5t-36 -94 t-96 -36q-57 0 -93 36.5t-36 93.5zM291 575h563q-13 98 -89.5 157t-189.5 59q-104 0 -184 -60t-100 -156zM655 1260q0 58 36 94.5t95 36.5q57 0 93 -37t36 -94t-36 -93.5t-93 -36.5q-59 0 -95 36t-36 94z" />
<glyph unicode="&#xec;" horiz-adv-x="473" d="M-123 1446h242l235 -346h-211zM127 0v961h217v-961h-217z" />
<glyph unicode="&#xed;" horiz-adv-x="473" d="M115 1100l235 346h242l-266 -346h-211zM127 0v961h217v-961h-217z" />
<glyph unicode="&#xee;" horiz-adv-x="473" d="M-127 1100l256 346h211l256 -346h-209l-154 188l-151 -188h-209zM127 0v961h217v-961h-217z" />
<glyph unicode="&#xef;" horiz-adv-x="473" d="M-106 1260q0 57 36 94t93 37q59 0 95 -36.5t36 -94.5t-36 -94t-95 -36q-57 0 -93 36.5t-36 93.5zM127 0v961h217v-961h-217zM317 1260q0 58 36.5 94.5t95.5 36.5q57 0 93 -37t36 -94t-36 -93.5t-93 -36.5q-59 0 -95.5 36t-36.5 94z" />
<glyph unicode="&#xf0;" horiz-adv-x="1161" d="M70 479q0 218 134.5 360t340.5 142q141 0 235 -66h4q-48 117 -149 211l-324 -106v141l211 70q-129 108 -313 192v11h344q75 -40 180 -131l213 69v-141l-104 -35q250 -277 250 -688q0 -239 -142.5 -383.5t-369.5 -144.5q-224 0 -367 139.5t-143 359.5zM289 479 q0 -134 81 -219.5t210 -85.5t210.5 85.5t81.5 219.5q0 136 -81.5 221.5t-210.5 85.5t-210 -85.5t-81 -221.5z" />
<glyph unicode="&#xf1;" horiz-adv-x="1136" d="M127 0v961h182l8 -148h5q94 168 323 168q180 0 282.5 -111t102.5 -307v-563h-217v539q0 118 -59 182.5t-164 64.5q-116 0 -181 -74.5t-65 -207.5v-504h-217zM238 1106v178q28 53 76.5 83t105.5 30q76 0 172 -56q78 -45 133 -45q109 0 168 119h8v-178q-28 -53 -76.5 -83 t-105.5 -30q-76 0 -172 56q-46 27 -73.5 36t-59.5 9q-108 0 -168 -119h-8z" />
<glyph unicode="&#xf2;" horiz-adv-x="1161" d="M70 479q0 221 143 361.5t367 140.5q225 0 368.5 -140.5t143.5 -361.5q0 -219 -143.5 -359t-368.5 -140q-224 0 -367 139.5t-143 359.5zM221 1446h242l235 -346h-211zM289 479q0 -134 81 -219.5t210 -85.5q130 0 211 85.5t81 219.5q0 137 -81 222t-211 85 q-129 0 -210 -85.5t-81 -221.5z" />
<glyph unicode="&#xf3;" horiz-adv-x="1161" d="M70 479q0 221 143 361.5t367 140.5q225 0 368.5 -140.5t143.5 -361.5q0 -219 -143.5 -359t-368.5 -140q-224 0 -367 139.5t-143 359.5zM289 479q0 -134 81 -219.5t210 -85.5q130 0 211 85.5t81 219.5q0 137 -81 222t-211 85q-129 0 -210 -85.5t-81 -221.5zM459 1100 l235 346h242l-266 -346h-211z" />
<glyph unicode="&#xf4;" horiz-adv-x="1161" d="M70 479q0 221 143 361.5t367 140.5q225 0 368.5 -140.5t143.5 -361.5q0 -219 -143.5 -359t-368.5 -140q-224 0 -367 139.5t-143 359.5zM217 1100l256 346h211l256 -346h-209l-153 188l-152 -188h-209zM289 479q0 -134 81 -219.5t210 -85.5q130 0 211 85.5t81 219.5 q0 137 -81 222t-211 85q-129 0 -210 -85.5t-81 -221.5z" />
<glyph unicode="&#xf5;" horiz-adv-x="1161" d="M70 479q0 221 143 361.5t367 140.5q225 0 368.5 -140.5t143.5 -361.5q0 -219 -143.5 -359t-368.5 -140q-224 0 -367 139.5t-143 359.5zM248 1106v178q28 53 76.5 83t105.5 30q76 0 172 -56q78 -45 133 -45q109 0 168 119h8v-178q-28 -53 -76.5 -83t-105.5 -30 q-76 0 -172 56q-46 27 -73.5 36t-59.5 9q-108 0 -168 -119h-8zM289 479q0 -134 81 -219.5t210 -85.5q130 0 211 85.5t81 219.5q0 137 -81 222t-211 85q-129 0 -210 -85.5t-81 -221.5z" />
<glyph unicode="&#xf6;" horiz-adv-x="1161" d="M70 479q0 221 143 361.5t367 140.5q225 0 368.5 -140.5t143.5 -361.5q0 -219 -143.5 -359t-368.5 -140q-224 0 -367 139.5t-143 359.5zM238 1260q0 57 36 94t93 37q59 0 95 -36.5t36 -94.5t-36 -94t-95 -36q-57 0 -93 36.5t-36 93.5zM289 479q0 -134 81 -219.5t210 -85.5 q130 0 211 85.5t81 219.5q0 137 -81 222t-211 85q-129 0 -210 -85.5t-81 -221.5zM662 1260q0 58 36 94.5t95 36.5q57 0 93 -37t36 -94t-36 -93.5t-93 -36.5q-59 0 -95 36t-36 94z" />
<glyph unicode="&#xf7;" d="M86 518v193h1159v-193h-1159zM541 143q0 54 35 89.5t90 35.5t90 -35.5t35 -89.5q0 -55 -34.5 -90t-90.5 -35t-90.5 35t-34.5 90zM541 1085q0 55 34.5 90t90.5 35t90.5 -35t34.5 -90q0 -54 -35 -89t-90 -35t-90 35t-35 89z" />
<glyph unicode="&#xf8;" horiz-adv-x="1159" d="M70 0l118 143q-118 137 -118 336q0 221 143 361.5t367 140.5q140 0 254 -57l30 37h228l-121 -146q121 -133 121 -336q0 -219 -143.5 -359t-368.5 -140q-141 0 -252 57l-31 -37h-227zM289 479q0 -95 41 -166l370 451q-55 22 -120 22q-129 0 -210 -85.5t-81 -221.5z M461 197q57 -23 119 -23q130 0 211 85.5t81 219.5q0 97 -41 168z" />
<glyph unicode="&#xf9;" horiz-adv-x="1136" d="M106 397v564h218v-539q0 -117 58.5 -182.5t164.5 -65.5q115 0 179.5 75.5t64.5 207.5v504h217v-961h-183l-8 145h-4q-95 -165 -321 -165q-182 0 -284 110.5t-102 306.5zM199 1446h241l236 -346h-211z" />
<glyph unicode="&#xfa;" horiz-adv-x="1136" d="M106 397v564h218v-539q0 -117 58.5 -182.5t164.5 -65.5q115 0 179.5 75.5t64.5 207.5v504h217v-961h-183l-8 145h-4q-95 -165 -321 -165q-182 0 -284 110.5t-102 306.5zM436 1100l236 346h241l-266 -346h-211z" />
<glyph unicode="&#xfb;" horiz-adv-x="1136" d="M106 397v564h218v-539q0 -117 58.5 -182.5t164.5 -65.5q115 0 179.5 75.5t64.5 207.5v504h217v-961h-183l-8 145h-4q-95 -165 -321 -165q-182 0 -284 110.5t-102 306.5zM195 1100l256 346h211l256 -346h-209l-154 188l-152 -188h-208z" />
<glyph unicode="&#xfc;" horiz-adv-x="1136" d="M106 397v564h218v-539q0 -117 58.5 -182.5t164.5 -65.5q115 0 179.5 75.5t64.5 207.5v504h217v-961h-183l-8 145h-4q-95 -165 -321 -165q-182 0 -284 110.5t-102 306.5zM215 1260q0 57 36 94t93 37q59 0 95 -36.5t36 -94.5t-36 -94t-95 -36q-57 0 -93 36.5t-36 93.5z M639 1260q0 58 36 94.5t95 36.5q57 0 93 -37t36 -94t-36 -93.5t-93 -36.5q-59 0 -95 36t-36 94z" />
<glyph unicode="&#xfd;" horiz-adv-x="1028" d="M14 961h234l268 -697h4l271 697h223l-576 -1350h-223l186 420zM393 1100l236 346h241l-266 -346h-211z" />
<glyph unicode="&#xfe;" horiz-adv-x="1210" d="M127 -389v1823h217v-576h4q114 123 318 123q206 0 340.5 -142t134.5 -360t-134.5 -358.5t-340.5 -140.5q-205 0 -318 122h-4v-491h-217zM338 479q0 -134 82 -219.5t211 -85.5q127 0 209 85.5t82 219.5q0 136 -81.5 221.5t-209.5 85.5q-129 0 -211 -85.5t-82 -221.5z" />
<glyph unicode="&#xff;" horiz-adv-x="1028" d="M14 961h234l268 -697h4l271 697h223l-576 -1350h-223l186 420zM172 1260q0 57 36 94t93 37q59 0 95 -36.5t36 -94.5t-36 -94t-95 -36q-57 0 -93 36.5t-36 93.5zM596 1260q0 58 36 94.5t95 36.5q57 0 93 -37t36 -94t-36 -93.5t-93 -36.5q-59 0 -95 36t-36 94z" />
<glyph unicode="&#x152;" horiz-adv-x="2187" d="M70 680q0 322 189.5 501t531.5 179h1298v-219h-760v-350h613v-213h-613v-359h760v-219h-1298q-342 0 -531.5 179t-189.5 501zM317 680q0 -221 126.5 -341t361.5 -120h278v922h-278q-235 0 -361.5 -120t-126.5 -341z" />
<glyph unicode="&#x153;" horiz-adv-x="1925" d="M70 479q0 221 137 361.5t354 140.5q143 0 250 -57.5t168 -163.5h4q59 105 166.5 163t247.5 58q218 0 339.5 -122t121.5 -339v-106h-764q20 -115 112.5 -179.5t235.5 -64.5q215 0 346 125h10v-215q-130 -100 -352 -100q-333 0 -463 221h-4q-59 -105 -167 -163t-251 -58 q-217 0 -354 139.5t-137 359.5zM289 479q0 -134 81 -219.5t210 -85.5q130 0 211 85.5t81 219.5q0 137 -81 222t-211 85q-129 0 -210 -85.5t-81 -221.5zM1094 575h563q-13 98 -89.5 157t-189.5 59q-104 0 -184 -60t-100 -156z" />
<glyph unicode="&#x178;" horiz-adv-x="1404" d="M12 1360h299l398 -572l397 572h287l-566 -780v-580h-245v575zM360 1642q0 57 36 94.5t93 37.5q59 0 95.5 -37t36.5 -95q0 -57 -36 -93t-96 -36q-57 0 -93 36t-36 93zM784 1642q0 58 36 95t95 37q57 0 93 -37.5t36 -94.5t-36 -93t-93 -36q-59 0 -95 35.5t-36 93.5z" />
<glyph unicode="&#x2c6;" horiz-adv-x="1024" d="M152 1100l256 346h210l256 -346h-208l-154 188l-152 -188h-208z" />
<glyph unicode="&#x2dc;" horiz-adv-x="1024" d="M180 1106v178q28 53 76.5 83t105.5 30q77 0 173 -56q78 -45 133 -45q108 0 168 119h8v-178q-28 -53 -76.5 -83t-105.5 -30q-77 0 -173 56q-46 27 -73.5 36t-59.5 9q-108 0 -168 -119h-8z" />
<glyph unicode="&#x2000;" horiz-adv-x="935" />
<glyph unicode="&#x2001;" horiz-adv-x="1870" />
<glyph unicode="&#x2002;" horiz-adv-x="935" />
<glyph unicode="&#x2003;" horiz-adv-x="1870" />
<glyph unicode="&#x2004;" horiz-adv-x="623" />
<glyph unicode="&#x2005;" horiz-adv-x="467" />
<glyph unicode="&#x2006;" horiz-adv-x="311" />
<glyph unicode="&#x2007;" horiz-adv-x="311" />
<glyph unicode="&#x2008;" horiz-adv-x="233" />
<glyph unicode="&#x2009;" horiz-adv-x="374" />
<glyph unicode="&#x200a;" horiz-adv-x="103" />
<glyph unicode="&#x2010;" horiz-adv-x="757" d="M90 451v219h578v-219h-578z" />
<glyph unicode="&#x2011;" horiz-adv-x="757" d="M90 451v219h578v-219h-578z" />
<glyph unicode="&#x2012;" horiz-adv-x="757" d="M90 451v219h578v-219h-578z" />
<glyph unicode="&#x2013;" horiz-adv-x="1024" d="M102 463v194h820v-194h-820z" />
<glyph unicode="&#x2014;" horiz-adv-x="2048" d="M102 463v194h1844v-194h-1844z" />
<glyph unicode="&#x2018;" horiz-adv-x="536" d="M74 879l219 481h178l-174 -481h-223z" />
<glyph unicode="&#x2019;" horiz-adv-x="536" d="M66 879l174 481h223l-219 -481h-178z" />
<glyph unicode="&#x201a;" horiz-adv-x="536" d="M10 -240l174 482h224l-220 -482h-178z" />
<glyph unicode="&#x201c;" horiz-adv-x="933" d="M74 879l219 481h178l-174 -481h-223zM471 879l219 481h178l-174 -481h-223z" />
<glyph unicode="&#x201d;" horiz-adv-x="933" d="M66 879l174 481h223l-219 -481h-178zM463 879l174 481h223l-219 -481h-178z" />
<glyph unicode="&#x201e;" horiz-adv-x="933" d="M10 -240l174 482h224l-220 -482h-178zM408 -240l174 482h223l-219 -482h-178z" />
<glyph unicode="&#x2022;" horiz-adv-x="1024" d="M209 559q0 131 86.5 217t216.5 86t216.5 -86t86.5 -217q0 -130 -86 -215.5t-217 -85.5t-217 85.5t-86 215.5z" />
<glyph unicode="&#x2026;" horiz-adv-x="2048" d="M236 121q0 60 40.5 100.5t100.5 40.5q61 0 101 -40.5t40 -100.5t-40 -100.5t-101 -40.5q-60 0 -100.5 40.5t-40.5 100.5zM883 121q0 60 40.5 100.5t100.5 40.5q61 0 101 -40.5t40 -100.5t-40 -100.5t-101 -40.5q-60 0 -100.5 40.5t-40.5 100.5zM1530 121q0 60 40.5 100.5 t100.5 40.5q61 0 101 -40.5t40 -100.5t-40 -100.5t-101 -40.5q-60 0 -100.5 40.5t-40.5 100.5z" />
<glyph unicode="&#x202f;" horiz-adv-x="374" />
<glyph unicode="&#x2039;" horiz-adv-x="591" d="M59 473v14l430 441v-228l-227 -221l227 -219v-227z" />
<glyph unicode="&#x203a;" horiz-adv-x="591" d="M102 33v227l228 221l-228 219v228l430 -441v-14z" />
<glyph unicode="&#x205f;" horiz-adv-x="467" />
<glyph unicode="&#x20ac;" d="M113 459v141h135q-2 27 -2 80q0 30 4 88h-137v141h157q54 223 209.5 347t384.5 124q224 0 346 -92v-233h-12q-58 57 -139.5 88t-171.5 31q-140 0 -236 -68.5t-141 -196.5h553v-141h-582q-4 -58 -4 -88t4 -80h582v-141h-555q43 -132 139.5 -202.5t239.5 -70.5 q90 0 171.5 31t139.5 88h12v-233q-122 -92 -346 -92q-232 0 -387.5 126t-208.5 353h-155z" />
<glyph unicode="&#x2122;" horiz-adv-x="1579" d="M39 1239v121h530v-121h-194v-569h-139v569h-197zM674 670v690h207l188 -494h4l187 494h210v-690h-139v514h-4l-197 -514h-122l-199 516h-4v-516h-131z" />
<glyph unicode="&#x25fc;" horiz-adv-x="962" d="M0 0v963h963v-963h-963z" />
</font>
</defs>
</svg>
